<svg width="54" height="54" viewBox="0 0 54 54" fill="none" xmlns="http://www.w3.org/2000/svg">
<g filter="url(#filter0_d_503_114)">
<circle cx="26.6951" cy="26.6951" r="22.6951" fill="white"/>
<g clip-path="url(#clip0_503_114)">
<path d="M31.5999 14.4019C30.3395 14.4891 28.8664 15.2958 28.008 16.3463C27.2249 17.2993 26.5807 18.7148 26.8319 20.0904C28.2089 20.1332 29.6318 19.3073 30.4563 18.239C31.2275 17.2447 31.8112 15.838 31.5999 14.4019Z" fill="#A8A8A8"/>
<path d="M36.5805 22.3333C35.3704 20.8158 33.6697 19.9352 32.0636 19.9352C29.9434 19.9352 29.0465 20.9503 27.5734 20.9503C26.0545 20.9503 24.9006 19.9382 23.0669 19.9382C21.2658 19.9382 19.348 21.039 18.132 22.9213C16.4225 25.572 16.715 30.5558 19.4854 34.8007C20.4768 36.3196 21.8007 38.0276 23.5324 38.0424C25.0734 38.0572 25.5078 37.0539 27.5956 37.0436C29.6833 37.0318 30.0793 38.0557 31.6174 38.0395C33.3506 38.0262 34.7468 36.1334 35.7383 34.6145C36.449 33.5256 36.7134 32.9774 37.2646 31.7481C33.256 30.2218 32.6133 24.5215 36.5805 22.3333Z" fill="#A8A8A8"/>
</g>
</g>
<defs>
<filter id="filter0_d_503_114" x="0" y="0" width="53.3901" height="53.3901" filterUnits="userSpaceOnUse" color-interpolation-filters="sRGB">
<feFlood flood-opacity="0" result="BackgroundImageFix"/>
<feColorMatrix in="SourceAlpha" type="matrix" values="0 0 0 0 0 0 0 0 0 0 0 0 0 0 0 0 0 0 127 0" result="hardAlpha"/>
<feOffset/>
<feGaussianBlur stdDeviation="2"/>
<feComposite in2="hardAlpha" operator="out"/>
<feColorMatrix type="matrix" values="0 0 0 0 0 0 0 0 0 0 0 0 0 0 0 0 0 0 0.25 0"/>
<feBlend mode="normal" in2="BackgroundImageFix" result="effect1_dropShadow_503_114"/>
<feBlend mode="normal" in="SourceGraphic" in2="effect1_dropShadow_503_114" result="shape"/>
</filter>
<clipPath id="clip0_503_114">
<rect width="23.6407" height="23.6407" fill="white" transform="translate(15.3475 14.4019)"/>
</clipPath>
</defs>
</svg>
