<svg width="320" height="294" viewBox="0 0 320 294" fill="none" xmlns="http://www.w3.org/2000/svg">
<circle cx="160" cy="106" r="106" fill="#97A0C7"/>
<path d="M1.45614 294H318.544C319.347 294 320 293.05 320 291.876C320 290.703 319.347 289.75 318.544 289.75H1.45614C0.651386 289.75 0 290.701 0 291.876C0 293.052 0.651386 294 1.45614 294Z" fill="#FE978E"/>
<path d="M268.79 275.923C268.79 275.923 268.818 276.191 268.818 276.643C268.818 277.991 268.555 280.963 266.444 283.153C263.627 286.077 263.611 289.713 266.586 290.334C269.562 290.955 276.657 290.134 276.657 290.134C276.657 290.134 278.261 287.355 277.166 279.926C276.07 272.497 275.433 264.354 275.433 264.354L267.35 263.094L268.79 275.923Z" fill="#FF7446"/>
<path d="M267.205 279.08C267.205 279.08 264.206 283.139 263.504 284.84C262.803 286.541 262.963 290.746 263.504 291.18C268.353 294.999 277.548 291.561 277.548 291.561C277.985 289.502 278.302 287.42 278.499 285.324C278.818 281.886 278.638 278.684 277.548 278.684C276.458 278.684 276.265 280.484 273.777 279.976C271.289 279.469 269.757 278.58 267.205 279.08Z" fill="#001653"/>
<path d="M278.311 287.04C276.442 287.76 273.903 288.618 271.543 288.955C269.017 289.315 265.634 288.195 263.075 287.072C262.941 288.872 263.133 290.89 263.504 291.183C268.353 295.003 277.548 291.565 277.548 291.565C277.548 291.565 277.981 289.639 278.311 287.04Z" fill="white"/>
<path d="M278.311 287.04C271.354 289.124 270.074 289.493 263.075 287.072C264.244 287.699 265.469 288.216 266.734 288.615C269.423 289.446 271.011 289.374 272.689 288.998C274.632 288.564 276.519 287.907 278.311 287.04V287.04Z" fill="#957447"/>
<path d="M187.908 149.581C189.892 150.328 192.536 151.435 192.536 151.435C192.877 150.616 186.307 149.216 185.387 147.221C184.893 146.152 192.926 150.083 193.483 149.615C193.714 149.421 184.398 146.395 184.822 145.664C185.183 145.052 194.618 148.364 194.671 147.909C194.743 147.272 186.502 145.623 187.24 144.705C187.617 144.233 197.619 146.933 198.698 147.09C200.019 147.09 195.241 143.85 196.868 143.42C199.079 142.831 204.627 149.18 205.062 149.268C206.325 149.529 217.018 150.836 222.256 147.417C226.486 144.656 230.591 140.412 231.596 136.756C232.581 133.174 233.941 128.055 232.779 124.106C237.545 123.386 242.162 123.216 247.003 123.792C247.297 129.723 240.181 153.219 237.205 155.152C230.659 159.403 218.981 158.363 210.746 157.688C204.109 157.148 197.61 155.838 191.632 152.812C190.297 152.137 188.507 151.372 187.482 150.202C187.425 150.137 187.392 150.055 187.387 149.969C187.382 149.883 187.406 149.798 187.454 149.727C187.503 149.656 187.574 149.603 187.656 149.577C187.738 149.55 187.827 149.552 187.908 149.581Z" fill="#F25C12"/>
<path d="M235.76 104.203C232.214 107.859 228.633 129.752 229.95 134.97C232.227 139.209 242.532 139.94 245.865 141.951C253.553 138.797 248.286 124.656 248.286 124.656L251.088 97.1165C251.088 97.1165 242.51 97.2443 235.76 104.203Z" fill="#E6A500"/>
<path d="M245.455 271.02C245.976 272.627 245.999 274.354 245.521 275.976C245.043 277.597 244.087 279.037 242.777 280.108C241.796 280.909 240.711 281.575 239.551 282.088C234.842 284.142 228.741 283.679 227.891 287.898C227.041 292.117 257.754 286.714 257.754 286.714C257.754 286.714 255.623 276.454 255.486 274.735C255.349 273.016 255.666 266.705 255.666 266.705L243.804 265.855L245.455 271.02Z" fill="#FF7446"/>
<path d="M256.507 279.467C256.507 279.467 256.882 281.087 257.743 283.859C258.256 285.599 258.367 287.433 258.066 289.223C258.066 289.223 229.299 290.582 228.135 289.673C226.971 288.764 227.568 285.455 227.862 285.162C228.156 284.869 231.808 283.886 233.68 282.734C235.551 281.582 241.947 277.22 244.107 277.397C246.267 277.573 247.265 279.166 251.368 279.348C255.471 279.53 255.488 278.671 256.507 279.467Z" fill="#001653"/>
<path d="M228.135 289.673C229.299 290.573 258.066 289.223 258.066 289.223C258.28 287.958 258.29 286.666 258.095 285.398C243.079 288.174 227.862 285.162 227.862 285.162C227.568 285.456 226.971 288.764 228.135 289.673Z" fill="white"/>
<path d="M258.095 285.398C247.839 287.441 236.471 287.009 227.862 285.162C243.521 287.522 256.146 285.702 255.273 285.781L258.095 285.398Z" fill="#957447"/>
<path d="M280.311 171.591C285.247 189.591 279.12 270.355 279.12 270.355L264.344 269.347C264.344 269.347 260.982 189.006 258.542 186.575C257.83 185.855 257.063 186.089 256.475 186.492C255.885 186.909 255.454 187.512 255.251 188.204C253.732 193.161 245.04 222.017 246.792 228.343C248.71 235.263 257.272 272.328 257.272 272.328L244.874 272.82C244.874 272.82 227.875 244.502 227.875 224.733C227.875 204.963 230.639 178.759 238.672 168.096C242.328 163.236 260.325 159.488 260.325 159.488C260.325 159.488 278.779 165.968 280.311 171.591Z" fill="#021F6E"/>
<path d="M253.606 272.289C253.606 272.289 245.046 232.766 243.126 225.388C241.733 220.031 246.944 199.479 249.901 188.627C250.107 187.875 250.495 187.185 251.031 186.619C251.567 186.052 252.235 185.626 252.975 185.379C253.716 185.131 254.506 185.069 255.276 185.199C256.047 185.328 256.773 185.645 257.391 186.121V186.121C257.391 186.121 244.874 221.417 246.792 228.336C248.71 235.255 257.272 272.321 257.272 272.321L244.874 272.82C244.874 272.82 244.842 272.767 244.784 272.667L253.606 272.289Z" fill="#021753"/>
<path d="M277.245 167.854C278.829 169.091 279.975 170.362 280.312 171.591C285.249 189.591 279.122 270.355 279.122 270.355L275.462 270.105C275.666 267.184 280.971 191.168 277.245 167.854Z" fill="#021753"/>
<path d="M235.834 172.92C236.613 171.218 237.564 169.601 238.672 168.092C239.185 167.455 239.794 166.901 240.477 166.451C242.532 167.496 245.372 168.639 249.3 169.844C261.146 173.478 273.916 171.541 279.222 169.698C279.716 170.244 280.086 170.89 280.305 171.591C280.735 173.154 281.079 175.191 281.352 177.6C278.703 179.565 263.308 184.314 249.293 179.866C240.406 177.042 237.097 175.332 235.834 172.92Z" fill="#021753"/>
<path d="M279.112 276.47C275.323 277.696 266.215 277.392 264.039 276.47C262.032 275.62 261.897 268.174 264.039 267.771C267.048 267.204 275.587 267.267 279.112 267.771C281.272 268.078 281.187 275.799 279.112 276.47Z" fill="#5D70A2"/>
<path d="M256.644 273.143C252.855 274.369 243.745 274.067 241.568 273.143C239.562 272.294 239.427 264.847 241.568 264.444C244.578 263.877 253.117 263.94 256.644 264.444C258.802 264.752 258.717 272.472 256.644 273.143Z" fill="#5D70A2"/>
<path d="M262.288 96.4919C262.288 96.4919 274.611 95.8601 279.647 101.814C284.683 107.769 284.271 170.311 282.234 172.057C280.197 173.803 262.684 179.077 248.773 174.968C234.863 170.859 233.977 165.226 233.977 165.226C233.977 165.226 237.678 123.164 237.678 111.668C237.678 100.171 248.93 93.3995 262.288 96.4919Z" fill="#FCC332"/>
<path d="M273.158 159.846C274.241 156.826 273.08 147.219 271.843 140.271C270.872 140.451 269.939 140.676 269.058 140.93C267.57 136.333 266.258 124.403 266.213 116.902C266.13 102.833 273.27 98.7419 273.27 98.7419C274.686 98.4197 276.949 99.7481 280.487 103.422C284.576 114.582 283.721 166.477 281.805 168.119C280.987 168.817 279.389 173.206 275.269 174.075C274.199 169.885 272.151 162.638 273.158 159.846Z" fill="#E6A500"/>
<path d="M263.351 96.6216C266.023 99.0714 266.238 99.1182 263.454 102.333C260.67 105.548 251.487 109.204 250.175 108.586C246.928 107.053 249.95 101.939 252.115 98.2596C252.795 97.1094 260.679 94.1718 263.351 96.6216Z" fill="#E6A500"/>
<path d="M251.408 87.3588C251.408 87.3588 250.686 104.279 251.408 105.028C252.13 105.776 262.44 102.185 263.34 100.085C264.241 97.9842 259.582 67.3843 259.582 67.3843L251.408 87.3588Z" fill="#F25C12"/>
<path opacity="0.6" d="M251.097 98.5206C252.92 98.193 254.49 97.7304 254.95 97.212C259.158 92.4708 256.005 84.7795 256.336 82.7797C256.994 78.7981 258.333 75.5095 257.662 72.0769L251.408 87.3589C251.408 87.3589 251.148 93.4788 251.097 98.5206Z" fill="#B5450E"/>
<path d="M196.112 106.588C195.41 108.352 196.868 110.06 198.395 109.303C198.753 109.118 199.031 108.809 199.176 108.433C199.88 106.669 198.42 104.957 196.892 105.717C196.534 105.903 196.257 106.213 196.112 106.588V106.588Z" fill="#00424C"/>
<path d="M197.058 107.438L197.579 108.167L197.895 107.294C198.308 106.154 201.811 96.0906 197.944 93.7938C196.802 93.1152 195.724 93.3348 194.99 94.3878C193.299 96.8196 193.824 102.913 197.058 107.438ZM195.76 95.1096C196.121 94.6002 196.56 94.44 197.103 94.6308C197.238 94.6782 197.369 94.7385 197.493 94.8108C199.838 96.2022 198.359 102.617 197.298 105.92C194.714 101.743 194.609 96.762 195.76 95.1096V95.1096Z" fill="#00424C"/>
<path d="M197.547 106.878L198.353 107.058C199.07 107.212 199.8 107.29 200.533 107.29C204.124 107.29 207.258 105.438 208.016 103.301C208.42 102.166 208.097 101.086 207.133 100.339C203.914 97.842 198.653 105.283 198.057 106.142L197.547 106.878ZM199.391 106.073C200.896 104.077 203.685 100.965 205.638 100.965C205.98 100.959 206.314 101.07 206.583 101.28C207.152 101.723 207.323 102.241 207.101 102.864C206.5 104.556 203.211 106.532 199.385 106.073H199.391Z" fill="#00424C"/>
<path d="M171.852 151.386H220.327C222.981 151.386 225.132 149.24 225.132 146.593V112.456C225.132 109.809 222.981 107.663 220.327 107.663H171.852C169.198 107.663 167.047 109.809 167.047 112.456V146.593C167.047 149.24 169.198 151.386 171.852 151.386Z" fill="#F47400"/>
<path d="M170.849 107.663H189.003V151.387H170.849C168.75 151.387 167.049 148.674 167.049 145.328V113.723C167.049 110.375 168.75 107.663 170.849 107.663Z" fill="#F29913"/>
<path d="M205.34 107.663H206.773C214.521 121.616 209.773 146.059 208.606 151.387H207.487C208.288 147.797 213.824 121.213 205.407 107.792C205.381 107.751 205.359 107.707 205.34 107.663V107.663Z" fill="#00424C"/>
<path d="M178.541 151.221C178.548 151.276 178.552 151.331 178.552 151.387H177.489C174.364 126.476 177.814 113.299 180.143 107.663H181.455C179.337 112.373 175.271 125.357 178.541 151.221Z" fill="#00424C"/>
<path d="M264.746 198.658H300.933C301.618 198.658 302.173 198.104 302.173 197.421V173.985C302.173 173.302 301.618 172.749 300.933 172.749H264.746C264.061 172.749 263.506 173.302 263.506 173.985V197.421C263.506 198.104 264.061 198.658 264.746 198.658Z" fill="#50BFA5"/>
<path d="M264.982 195.674H297.732V175.733H264.982V195.674Z" fill="white"/>
<path d="M263.38 191.404H265.433C265.82 191.404 266.133 191.091 266.133 190.705V180.701C266.133 180.315 265.82 180.003 265.433 180.003H263.38C262.993 180.003 262.68 180.315 262.68 180.701V190.705C262.68 191.091 262.993 191.404 263.38 191.404Z" fill="#F29913"/>
<path d="M276.13 159.846C273.692 167.244 282.276 183.246 278.789 188.373C275.303 193.499 277.057 198.872 281.281 201.54C285.505 204.207 290.758 200.46 290.334 198.438C289.91 196.417 288.771 190.943 288.25 188.445C287.728 185.946 297.555 165.93 290.639 153.793C286.534 146.593 292.602 134.193 289.398 126.183C286.538 131.52 272.945 128.184 273.726 134.04C274.964 139.038 277.499 155.687 276.13 159.846Z" fill="#F25C12"/>
<path d="M245.356 69.8089C245.356 69.8089 243.586 75.8839 243.586 80.8662C243.586 85.8486 243.705 94.4742 247.242 94.4742C250.778 94.4742 255.85 93.5022 257.029 86.4552C258.207 79.4082 257.029 71.6305 253.492 69.8089C249.955 67.9873 245.356 69.8089 245.356 69.8089Z" fill="#FF7446"/>
<path d="M246.736 74.2963C247.687 73.9057 248.672 74.7535 248.49 75.7921C248.198 77.4571 248.27 79.2823 249.833 79.6621C252.839 80.3947 254.259 79.6621 254.751 80.1697C255.244 80.6773 253.33 83.3791 254.751 83.8867C256.173 84.3943 256.938 79.5505 258.194 79.5505C259.45 79.5505 259.724 86.5327 258.194 88.1095C256.664 89.6863 258.412 91.8283 260.435 91.8283C262.458 91.8283 260.181 94.3626 262.904 95.2068C265.626 96.051 267.815 96.051 268.689 92.6167C269.562 89.1823 268.689 87.2653 268.689 87.2653C268.689 87.2653 271.473 84.0253 270.765 80.8069C270.374 79.0231 268.562 75.8137 268.562 75.8137C268.562 75.8137 267.158 72.0031 266.776 69.8053C266.393 67.6075 260.973 65.4133 257.261 65.0191C253.55 64.6249 255.406 62.3713 252.292 62.3713C249.178 62.3713 248.748 66.4771 248.748 66.4771C248.748 66.4771 244.299 63.8239 244.093 63.9571C241.504 65.5303 243.656 68.2951 243.656 68.2951C243.656 68.2951 241.523 68.5201 241.087 71.2795C240.65 74.0389 242.453 75.7201 245.295 74.8201C245.834 74.6401 246.312 74.4709 246.736 74.2963Z" fill="#100062"/>
<path d="M243.658 64.2595C244.38 64.3798 245.094 64.55 245.793 64.7689C247.124 65.5069 248.748 66.4771 248.748 66.4771C248.748 66.4771 254.555 68.0971 257.882 69.6793C262.148 71.7079 265.885 73.7419 268.394 75.3439C268.499 75.6391 268.562 75.8137 268.562 75.8137C268.562 75.8137 269.228 76.9927 269.84 78.3211C267.198 77.7451 262.039 75.7597 256.285 73.0237C249.788 69.9349 243.292 64.5691 243.658 64.2595Z" fill="#0C004A"/>
<path d="M256.224 79.1706C256.224 79.1706 257.727 76.4094 259.064 77.9502C260.401 79.491 259.701 86.0052 257.644 86.0052C255.587 86.0052 255.502 80.9166 256.224 79.1706Z" fill="#FF7446"/>
<path d="M272.893 98.8753C272.893 98.8753 268.701 102.056 268.777 116.125C268.817 123.625 271.023 136.333 272.386 140.93C278.03 139.15 285.989 139.035 291.754 140.93C292.53 134.792 290.962 121.694 289.982 117.462C287.575 107.054 278.882 96.4939 272.893 98.8753Z" fill="#FCC332"/>
<path d="M247.53 64.9938C250.316 59.16 257.361 56.7048 263.261 59.52C269.161 62.3352 271.689 69.33 268.901 75.1638C268.795 75.3888 268.679 75.6066 268.559 75.8208L247.231 65.6796C247.326 65.4456 247.422 65.2188 247.53 64.9938Z" fill="#FCB500"/>
<path d="M251.964 67.6543C252.054 67.4275 252.144 67.2007 252.259 66.9757C253.378 64.6525 255.234 62.7619 257.538 61.5964C259.842 60.4309 262.468 60.0554 265.007 60.5281C264.455 60.1433 263.871 59.8061 263.261 59.5201C257.357 56.7121 250.313 59.1601 247.527 65.0011C247.418 65.2261 247.323 65.4529 247.231 65.6797L268.559 75.8209C268.602 75.7435 251.964 67.6543 251.964 67.6543Z" fill="#FCC332"/>
<path d="M237.711 61.4335C237.936 60.9583 249.042 65.4763 256.143 68.8513C263.243 72.2263 268.813 75.3493 268.593 75.8245C268.373 76.2997 256.585 73.5403 249.484 70.1653C242.384 66.7903 237.483 61.9087 237.711 61.4335Z" fill="#FC9700"/>
<path d="M27.7426 270.715C27.7426 270.715 25.2327 273.19 25.1767 274.099C25.1208 275.008 24.9548 284.743 25.9779 285.652C27.001 286.561 30.0125 287.205 29.0453 288.228C28.3146 289 22.6885 288.834 18.9606 288.627C17.8779 288.568 16.5066 279.787 16.0736 278.497C15.4474 276.621 13.4698 271.907 14.0382 270.6C14.3161 269.965 16.0988 269.149 17.9682 267.929C19.935 266.644 21.8151 263.789 21.8151 263.789L27.7426 270.715Z" fill="#F7A491"/>
<path d="M61.3151 276.797C61.3151 276.797 59.0686 283.213 59.0668 283.229C58.899 284.246 58.2422 286.757 58.2422 287.68C58.2422 291.151 73.7239 284.734 70.254 283.196C69.9401 283.056 68.9549 281.936 68.8502 280.763C68.6914 278.943 70.1548 276.661 70.1548 276.661L61.3151 276.797Z" fill="#F7A491"/>
<path d="M60.0267 162.417L52.0116 171.744L44.1535 220.542L19.4207 266.066C19.4207 266.066 23.1395 271.761 27.1326 272.657L62.2371 226.648L81.2626 169.048L80.595 156.25L60.0267 162.417Z" fill="#184655"/>
<path d="M80.0897 153.415L85.6292 170.457C85.6292 170.457 90.5011 221.217 89.8118 224.724C88.1193 233.254 71.0209 279.712 71.0209 279.712L60.0664 278.32L72.0891 223.392L52.0603 171.789L80.0897 153.415Z" fill="#355389"/>
<path d="M133.272 95.3993C130.681 98.2505 131.244 98.5925 130.903 98.9489C130.499 99.3701 122.982 100.967 122.982 100.967C122.982 100.967 100.86 105.827 99.6548 106.048L76.7065 100.841L71.1129 111.932C71.1129 111.932 96.2156 116.907 97.5689 116.929C98.9222 116.951 128.051 106.745 130.643 105.933C130.643 105.933 134.093 106.156 136.264 106.223C138.435 106.289 140.508 105.348 141.122 105.269C142.68 104.94 144.19 104.412 145.614 103.699C147.65 102.693 145.264 102.673 145.264 102.673C145.264 102.673 141.163 103.83 141.127 103.478C141.1 103.204 143.377 102.711 145.638 101.62C146.221 101.339 146.795 101.06 147.32 100.799C148.696 100.117 148.677 99.0353 147.123 99.5123C146.415 99.7204 145.724 99.9809 145.055 100.292C144.391 100.628 143.675 100.711 143.07 100.904C141.879 101.287 141.015 101.582 141.026 101.523C141.037 101.463 140.75 101.343 141.358 101.028C142.09 100.646 143.821 100.194 144.855 99.5465C145.441 99.1775 146.712 98.4863 146.712 98.4863C146.712 98.4863 148.832 97.1039 148.624 96.8195C148.173 96.1949 146.692 96.8195 145.959 97.4351C145.299 97.5719 143.983 98.3351 143.983 98.3351C143.983 98.3351 140.981 99.2585 140.844 98.8157C140.788 98.6357 142.338 97.7357 143.884 96.6755C145.521 95.5433 146.645 94.6469 146.488 94.2833C146.239 93.7037 144.864 94.5083 144.864 94.5083C144.864 94.5083 143.649 95.2175 143.227 95.4209C142.735 95.6603 141.201 96.2561 141.201 96.2561C141.201 96.2561 135.77 98.0705 135.674 97.6403C135.578 97.2101 135.755 96.0203 136.053 95.7773C136.351 95.5343 137.116 95.4173 137.414 95.1797C137.711 94.9421 138.303 94.3805 138.05 93.9755C137.798 93.5705 135.537 94.1123 135.537 94.1123C135.537 94.1123 134.019 94.5767 133.272 95.3993Z" fill="#F8A492"/>
<path d="M84.5756 102.018C84.5756 102.018 83.787 106.878 83.2782 108.678C82.856 110.172 79.8859 116.321 79.8859 116.321C79.8859 116.321 69.24 112.841 64.2166 110.851C58.1177 108.435 51.0644 103.233 51.5227 102.571C52.8074 100.726 54.8825 98.5674 57.8092 97.8384C67.9372 95.3166 84.5756 102.018 84.5756 102.018Z" fill="#3C8F7C"/>
<path d="M85.8043 170.099C75.6528 174.097 51.7915 171.789 51.7915 171.789C51.7915 171.789 53.3035 161.4 53.8376 154.38C54.3717 147.36 49.8932 136.254 47.9968 116.98C47.5962 112.892 49.1985 101.86 54.9437 98.3892C56.9629 97.1724 58.1916 97.014 58.1916 97.014C58.2458 97.014 66.0949 95.4156 70.1006 96.654C71.2392 97.6656 74.7921 100.587 76.8274 104.003C79.5106 108.529 81.7119 113.747 82.2298 115.462C84.543 123.107 85.5264 145.236 85.5264 149.41C85.5264 153.584 85.8043 170.099 85.8043 170.099Z" fill="#50BFA5"/>
<path d="M76.8382 103.996C76.8382 103.996 76.822 103.996 76.8129 104.007C72.9118 105.216 58.197 97.0553 58.197 97.0553V97.0139L59.9816 85.3733C59.9816 85.3733 69.1659 83.2133 68.6318 86.5235C68.0977 89.8337 69.8769 96.4379 69.8769 96.4379C69.9346 96.4973 70.0104 96.5657 70.106 96.6467C71.25 97.6583 74.7974 100.58 76.8382 103.996Z" fill="#F7A491"/>
<path d="M68.6355 86.52C69.1768 83.2135 59.9852 85.3716 59.9852 85.3716L59.8373 86.34C60.0694 86.9352 60.4068 87.4839 60.8333 87.96C62.8849 90.1488 66.0913 91.4628 68.8647 91.56C68.5868 89.7906 68.4172 87.879 68.6355 86.52Z" fill="#FE875E"/>
<path d="M58.2096 67.476C57.93 67.3752 55.956 81.8849 59.7001 85.8773C63.4442 89.8697 70.7394 91.1783 73.3557 88.0373C76.2428 84.5579 76.1056 68.9573 70.2883 64.8552C64.4709 60.753 58.2096 67.476 58.2096 67.476Z" fill="#F7A491"/>
<path d="M68.0671 57.0901C63.5687 57.9991 60.6546 60.7243 59.5864 61.8853C57.5438 62.1229 54.7669 63.2425 51.8997 67.9477C48.3685 73.7401 50.974 80.1426 55.0772 83.28C59.1804 86.4174 59.1353 90.075 59.1353 90.075C59.1353 90.075 66.0894 86.5146 65.4146 81.03C65.1313 78.7278 64.1317 78.2058 64.8733 76.4023C65.6528 74.5321 65.07 71.6233 65.2143 69.0979L65.6329 67.5049C65.6329 67.5049 68.5452 65.2585 71.3944 65.8849C74.2435 66.5113 73.8411 55.9201 68.0671 57.0901Z" fill="#13375B"/>
<path d="M66.021 77.9232C66.0517 79.6926 65.6908 81.111 64.6587 81.129C63.6265 81.147 63.336 80.4522 62.4826 77.9538C61.6832 75.6138 62.663 74.7336 63.6861 74.7138C64.7092 74.694 65.9921 76.152 66.021 77.9232Z" fill="#F7A491"/>
<path d="M18.0909 267.866C18.0909 267.866 23.3326 283.931 25.5971 284.726C26.198 284.937 29.6263 285.875 30.1695 287.165C30.1852 287.202 30.1966 287.241 30.2037 287.28C30.3842 288.098 29.6913 288.852 28.8541 288.852H18.1143C18.1143 288.852 16.5896 281.596 15.9869 278.412C15.9869 278.412 12.795 270.623 13.1504 269.914C13.5059 269.205 18.0909 267.866 18.0909 267.866Z" fill="#3C8F7C"/>
<path d="M57.3617 288.825L59.1336 283.162C59.1336 283.162 62.8579 284.755 64.7272 284.491C66.5966 284.226 70.2234 283.162 70.2234 283.162C77.6521 285.635 83.7401 286.836 82.6322 288.825H57.3707H57.3617Z" fill="#3C8F7C"/>
<path d="M133.909 119.924C130.481 121.993 130.692 122.239 130.246 122.493C129.72 122.794 121.585 122.439 121.585 122.439C121.585 122.439 97.6302 121.539 96.3383 121.454L74.2561 110.764L65.5518 119.944C65.5518 119.944 89.9111 130.951 91.2896 131.309C92.6682 131.667 125.236 129.21 128.112 129.084C128.112 129.084 131.584 130.164 133.787 130.764C135.99 131.363 138.368 130.989 139.019 131.066C140.697 131.141 142.377 131.015 144.025 130.69C146.38 130.238 143.944 129.624 143.944 129.624C143.944 129.624 139.433 129.704 139.492 129.358C139.537 129.092 142.002 129.189 144.613 128.715C145.284 128.593 145.946 128.471 146.553 128.355C148.148 128.048 148.418 127.014 146.699 127.079C145.919 127.101 145.142 127.177 144.373 127.308C143.603 127.461 142.847 127.362 142.181 127.394C140.856 127.463 139.967 127.526 139.994 127.472C140.021 127.418 139.685 127.236 140.394 127.086C141.246 126.906 143.141 126.906 144.373 126.546C145.071 126.343 146.558 126.006 146.558 126.006C146.558 126.006 148.321 124.957 148.31 124.817C148.245 124.061 146.986 124.421 146.071 124.817C145.349 124.781 143.805 125.177 143.805 125.177C143.805 125.177 140.481 125.306 140.461 124.853C140.461 124.673 142.37 124.549 144.348 123.922C146.61 123.202 147.172 122.191 147.107 121.789C147.009 121.175 145.734 121.751 145.734 121.751C145.734 121.751 143.987 122.545 143.502 122.633C142.931 122.738 135.463 122.873 135.481 122.439C135.499 122.005 136.221 121.438 136.589 121.291C136.957 121.143 137.657 120.94 138.023 120.79C138.39 120.641 138.644 119.89 138.496 119.433C138.348 118.976 136.722 119.224 136.722 119.224C136.722 119.224 134.896 119.327 133.909 119.924Z" fill="#F8A492"/>
<path d="M72.0926 129.77C72.0926 129.77 76.4394 124.302 77.9497 122.086C79.9243 119.142 81.7316 116.09 83.3629 112.944C83.3629 112.944 71.2464 105.985 66.7336 103.62C50.1711 94.9116 50.5554 107.899 51.3259 110.78C53.0491 117.221 72.0926 129.77 72.0926 129.77Z" fill="#96D9C9"/>
<path d="M133.55 101.429C134.983 100.614 136.091 99.3359 135.726 97.7285C136.953 99.0011 135.407 101.352 133.55 101.429Z" fill="#FE875E"/>
</svg>
