<svg width="80" height="80" viewBox="0 0 80 80" fill="none" xmlns="http://www.w3.org/2000/svg">
<g filter="url(#filter0_d_520_237)">
<circle cx="40" cy="40" r="35" fill="white"/>
</g>
<path d="M33.9375 40C27.8969 40 23 44.4772 23 50C23 53.3137 25.9381 56 29.5625 56H51.4375C55.0619 56 58 53.3137 58 50C58 44.4772 53.1031 40 47.0625 40H33.9375Z" fill="#97A0C7"/>
<path d="M40 21C36.134 21 33 24.134 33 28C33 31.866 36.134 35 40 35C43.866 35 47 31.866 47 28C47 24.134 43.866 21 40 21Z" fill="#97A0C7"/>
<defs>
<filter id="filter0_d_520_237" x="0" y="0" width="80" height="80" filterUnits="userSpaceOnUse" color-interpolation-filters="sRGB">
<feFlood flood-opacity="0" result="BackgroundImageFix"/>
<feColorMatrix in="SourceAlpha" type="matrix" values="0 0 0 0 0 0 0 0 0 0 0 0 0 0 0 0 0 0 127 0" result="hardAlpha"/>
<feMorphology radius="1" operator="dilate" in="SourceAlpha" result="effect1_dropShadow_520_237"/>
<feOffset/>
<feGaussianBlur stdDeviation="2"/>
<feComposite in2="hardAlpha" operator="out"/>
<feColorMatrix type="matrix" values="0 0 0 0 0 0 0 0 0 0 0 0 0 0 0 0 0 0 0.25 0"/>
<feBlend mode="normal" in2="BackgroundImageFix" result="effect1_dropShadow_520_237"/>
<feBlend mode="normal" in="SourceGraphic" in2="effect1_dropShadow_520_237" result="shape"/>
</filter>
</defs>
</svg>
