<svg width="252" height="221" viewBox="0 0 252 221" fill="none" xmlns="http://www.w3.org/2000/svg">
<circle cx="126" cy="81" r="81" fill="#97A0C7"/>
<path d="M1.14671 221H250.853C251.486 221 252 220.25 252 219.324C252 218.398 251.486 217.647 250.853 217.647H1.14671C0.512966 217.647 0 218.397 0 219.324C0 220.252 0.512966 221 1.14671 221Z" fill="#FE978E"/>
<path d="M211.672 206.736C211.672 206.736 211.695 206.948 211.695 207.304C211.695 208.368 211.487 210.713 209.825 212.442C207.606 214.748 207.594 217.617 209.937 218.107C212.28 218.597 217.867 217.949 217.867 217.949C217.867 217.949 219.13 215.756 218.268 209.895C217.405 204.034 216.904 197.608 216.904 197.608L210.538 196.614L211.672 206.736Z" fill="#FF7446"/>
<path d="M210.424 209.228C210.424 209.228 208.063 212.43 207.51 213.772C206.957 215.114 207.083 218.432 207.51 218.774C211.328 221.788 218.569 219.076 218.569 219.076C218.913 217.451 219.163 215.808 219.318 214.154C219.569 211.442 219.427 208.915 218.569 208.915C217.711 208.915 217.559 210.335 215.599 209.935C213.64 209.534 212.433 208.833 210.424 209.228Z" fill="#001653"/>
<path d="M219.17 215.508C217.698 216.076 215.699 216.753 213.84 217.019C211.851 217.303 209.187 216.42 207.172 215.533C207.066 216.954 207.217 218.546 207.51 218.777C211.328 221.791 218.569 219.078 218.569 219.078C218.569 219.078 218.91 217.559 219.17 215.508Z" fill="white"/>
<path d="M219.17 215.508C213.691 217.152 212.683 217.444 207.172 215.533C208.092 216.028 209.057 216.436 210.053 216.751C212.17 217.407 213.421 217.35 214.742 217.053C216.273 216.71 217.759 216.192 219.17 215.508V215.508Z" fill="#957447"/>
<path d="M147.977 107.049C149.54 107.639 151.622 108.512 151.622 108.512C151.891 107.866 146.717 106.761 145.992 105.187C145.603 104.344 151.929 107.445 152.368 107.076C152.55 106.923 145.214 104.535 145.547 103.959C145.832 103.476 153.262 106.089 153.303 105.73C153.36 105.227 146.87 103.926 147.452 103.202C147.748 102.83 155.625 104.96 156.475 105.084C157.515 105.084 153.752 102.527 155.034 102.188C156.774 101.723 161.144 106.733 161.486 106.802C162.481 107.008 170.902 108.039 175.027 105.342C178.357 103.163 181.59 99.8145 182.382 96.9299C183.157 94.1036 184.229 90.0644 183.314 86.9484C187.066 86.3803 190.703 86.2468 194.515 86.7013C194.747 91.381 189.142 109.92 186.799 111.445C181.644 114.8 172.448 113.979 165.962 113.446C160.736 113.02 155.618 111.986 150.91 109.599C149.859 109.066 148.449 108.462 147.642 107.539C147.597 107.488 147.571 107.423 147.567 107.356C147.563 107.288 147.582 107.221 147.62 107.165C147.659 107.109 147.714 107.067 147.779 107.046C147.844 107.025 147.913 107.026 147.977 107.049Z" fill="#F25C12"/>
<path d="M185.661 71.2446C182.869 74.1291 180.048 91.4036 181.086 95.5209C182.879 98.8656 190.994 99.4422 193.618 101.029C199.673 98.5404 195.525 87.3829 195.525 87.3829L197.732 65.6531C197.732 65.6531 190.977 65.7539 185.661 71.2446Z" fill="#E6A500"/>
<path d="M193.296 202.868C193.706 204.136 193.724 205.499 193.348 206.778C192.972 208.057 192.219 209.193 191.187 210.038C190.414 210.67 189.56 211.196 188.647 211.601C184.938 213.221 180.134 212.856 179.464 216.185C178.795 219.514 202.981 215.251 202.981 215.251C202.981 215.251 201.303 207.155 201.195 205.799C201.087 204.443 201.337 199.463 201.337 199.463L191.996 198.793L193.296 202.868Z" fill="#FF7446"/>
<path d="M201.999 209.533C201.999 209.533 202.295 210.811 202.973 212.998C203.377 214.372 203.464 215.819 203.227 217.231C203.227 217.231 180.573 218.303 179.656 217.586C178.74 216.868 179.21 214.258 179.442 214.027C179.673 213.795 182.549 213.02 184.023 212.111C185.496 211.202 190.534 207.76 192.234 207.9C193.935 208.039 194.721 209.296 197.952 209.439C201.184 209.583 201.196 208.905 201.999 209.533Z" fill="#001653"/>
<path d="M179.656 217.586C180.573 218.296 203.227 217.23 203.227 217.23C203.396 216.232 203.403 215.213 203.25 214.212C191.425 216.402 179.442 214.026 179.442 214.026C179.21 214.258 178.74 216.868 179.656 217.586Z" fill="white"/>
<path d="M203.25 214.212C195.173 215.824 186.221 215.484 179.442 214.026C191.773 215.888 201.715 214.452 201.027 214.515L203.25 214.212Z" fill="#957447"/>
<path d="M220.745 124.416C224.632 138.618 219.807 202.344 219.807 202.344L208.171 201.548C208.171 201.548 205.523 138.157 203.602 136.238C203.041 135.67 202.437 135.855 201.974 136.173C201.51 136.502 201.17 136.978 201.01 137.523C199.814 141.435 192.969 164.203 194.349 169.195C195.859 174.654 202.602 203.9 202.602 203.9L192.838 204.288C192.838 204.288 179.452 181.945 179.452 166.346C179.452 150.747 181.628 130.071 187.955 121.658C190.833 117.823 205.006 114.866 205.006 114.866C205.006 114.866 219.538 119.979 220.745 124.416Z" fill="#021F6E"/>
<path d="M199.714 203.869C199.714 203.869 192.973 172.685 191.461 166.863C190.365 162.636 194.468 146.42 196.797 137.857C196.959 137.264 197.265 136.72 197.687 136.273C198.109 135.826 198.635 135.49 199.218 135.294C199.801 135.099 200.424 135.05 201.03 135.152C201.637 135.255 202.209 135.505 202.696 135.88V135.88C202.696 135.88 192.838 163.73 194.349 169.189C195.859 174.649 202.602 203.895 202.602 203.895L192.838 204.288C192.838 204.288 192.813 204.247 192.767 204.167L199.714 203.869Z" fill="#021753"/>
<path d="M218.33 121.468C219.578 122.443 220.48 123.446 220.746 124.416C224.634 138.618 219.808 202.344 219.808 202.344L216.926 202.146C217.087 199.841 221.265 139.863 218.33 121.468Z" fill="#021753"/>
<path d="M185.719 125.464C186.333 124.121 187.082 122.845 187.955 121.655C188.358 121.152 188.838 120.715 189.375 120.36C190.994 121.185 193.231 122.087 196.324 123.037C205.653 125.904 215.709 124.376 219.888 122.922C220.277 123.352 220.567 123.862 220.74 124.416C221.078 125.649 221.35 127.256 221.564 129.157C219.478 130.708 207.355 134.454 196.318 130.945C189.32 128.716 186.714 127.367 185.719 125.464Z" fill="#021753"/>
<path d="M219.801 207.168C216.817 208.135 209.644 207.895 207.93 207.168C206.35 206.498 206.244 200.622 207.93 200.304C210.301 199.857 217.025 199.906 219.801 200.304C221.502 200.547 221.435 206.638 219.801 207.168Z" fill="#5D70A2"/>
<path d="M202.107 204.544C199.123 205.511 191.949 205.272 190.235 204.544C188.655 203.873 188.549 197.998 190.235 197.679C192.605 197.232 199.329 197.282 202.107 197.679C203.807 197.922 203.74 204.014 202.107 204.544Z" fill="#5D70A2"/>
<path d="M206.552 65.1602C206.552 65.1602 216.256 64.6617 220.222 69.3599C224.188 74.0581 223.864 123.406 222.259 124.784C220.655 126.161 206.863 130.323 195.909 127.08C184.955 123.838 184.257 119.394 184.257 119.394C184.257 119.394 187.172 86.2054 187.172 77.1343C187.172 68.0632 196.033 62.7202 206.552 65.1602Z" fill="#FCC332"/>
<path d="M215.112 115.149C215.964 112.766 215.051 105.186 214.076 99.7037C213.312 99.8457 212.577 100.023 211.884 100.223C210.711 96.5961 209.678 87.1827 209.643 81.2646C209.577 70.1639 215.2 66.9356 215.2 66.9356C216.315 66.6814 218.097 67.7296 220.884 70.6283C224.104 79.4338 223.43 120.381 221.921 121.676C221.277 122.227 220.019 125.69 216.774 126.376C215.932 123.07 214.319 117.352 215.112 115.149Z" fill="#E6A500"/>
<path d="M207.389 65.2626C209.493 67.1955 209.662 67.2325 207.47 69.769C205.277 72.3056 198.046 75.1901 197.013 74.703C194.455 73.4929 196.835 69.458 198.541 66.555C199.076 65.6475 205.284 63.3296 207.389 65.2626Z" fill="#E6A500"/>
<path d="M197.984 57.9539C197.984 57.9539 197.415 71.3042 197.984 71.895C198.552 72.4859 206.671 69.6525 207.38 67.995C208.09 66.3376 204.421 42.1934 204.421 42.1934L197.984 57.9539Z" fill="#F25C12"/>
<path opacity="0.6" d="M197.739 66.7609C199.174 66.5024 200.411 66.1374 200.773 65.7284C204.087 61.9874 201.604 55.9187 201.864 54.3408C202.383 51.1992 203.437 48.6044 202.909 45.896L197.984 57.9539C197.984 57.9539 197.779 62.7828 197.739 66.7609Z" fill="#B5450E"/>
<path d="M154.438 73.1264C153.886 74.5182 155.034 75.866 156.236 75.2681C156.518 75.1223 156.737 74.8783 156.851 74.5821C157.405 73.1903 156.256 71.8396 155.052 72.439C154.771 72.5858 154.552 72.8302 154.438 73.1264V73.1264Z" fill="#00424C"/>
<path d="M155.183 73.7968L155.594 74.372L155.842 73.6832C156.168 72.7841 158.926 64.8435 155.881 63.0313C154.981 62.4959 154.133 62.6691 153.555 63.5C152.223 65.4187 152.637 70.2263 155.183 73.7968ZM154.161 64.0695C154.445 63.6676 154.791 63.5412 155.219 63.6917C155.325 63.7291 155.428 63.7766 155.525 63.8337C157.373 64.9316 156.208 69.9934 155.372 72.5995C153.337 69.3031 153.255 65.3733 154.161 64.0695V64.0695Z" fill="#00424C"/>
<path d="M155.568 73.3551L156.203 73.4972C156.767 73.619 157.343 73.6804 157.92 73.6804C160.747 73.6804 163.216 72.2189 163.812 70.5331C164.131 69.6369 163.876 68.7848 163.118 68.1954C160.583 66.2255 156.439 72.0968 155.97 72.7743L155.568 73.3551ZM157.02 72.7203C158.205 71.1452 160.402 68.6896 161.94 68.6896C162.209 68.6846 162.472 68.7724 162.684 68.9382C163.132 69.2876 163.267 69.6966 163.092 70.188C162.619 71.523 160.028 73.0825 157.016 72.7203H157.02Z" fill="#00424C"/>
<path d="M135.334 108.474H173.508C175.597 108.474 177.292 106.78 177.292 104.692V77.7565C177.292 75.6677 175.597 73.9743 173.508 73.9743H135.334C133.244 73.9743 131.55 75.6677 131.55 77.7565V104.692C131.55 106.78 133.244 108.474 135.334 108.474Z" fill="#F47400"/>
<path d="M134.544 73.9744H148.84V108.474H134.544C132.891 108.474 131.551 106.333 131.551 103.693V78.7563C131.551 76.1147 132.891 73.9744 134.544 73.9744Z" fill="#F29913"/>
<path d="M161.705 73.9744H162.833C168.935 84.9841 165.196 104.27 164.277 108.474H163.396C164.027 105.642 168.387 84.666 161.758 74.0766C161.738 74.0437 161.72 74.0096 161.705 73.9744V73.9744Z" fill="#00424C"/>
<path d="M140.601 108.343C140.607 108.386 140.61 108.43 140.61 108.474H139.773C137.312 88.8188 140.028 78.4212 141.863 73.9744H142.896C141.228 77.6912 138.026 87.9354 140.601 108.343Z" fill="#00424C"/>
<path d="M208.487 145.772H236.985C237.524 145.772 237.961 145.335 237.961 144.797V126.305C237.961 125.766 237.524 125.329 236.985 125.329H208.487C207.948 125.329 207.511 125.766 207.511 126.305V144.797C207.511 145.335 207.948 145.772 208.487 145.772Z" fill="#50BFA5"/>
<path d="M208.674 143.417H234.464V127.684H208.674V143.417Z" fill="white"/>
<path d="M207.412 140.049H209.029C209.333 140.049 209.58 139.802 209.58 139.498V131.604C209.58 131.299 209.333 131.053 209.029 131.053H207.412C207.107 131.053 206.86 131.299 206.86 131.604V139.498C206.86 139.802 207.107 140.049 207.412 140.049Z" fill="#F29913"/>
<path d="M217.452 115.149C215.533 120.986 222.292 133.612 219.547 137.657C216.801 141.702 218.183 145.941 221.509 148.046C224.836 150.151 228.972 147.194 228.638 145.599C228.304 144.004 227.408 139.685 226.997 137.714C226.586 135.743 234.325 119.949 228.878 110.373C225.646 104.692 230.424 94.9075 227.901 88.5874C225.648 92.7984 214.944 90.1667 215.56 94.7868C216.534 98.7308 218.531 111.867 217.452 115.149Z" fill="#F25C12"/>
<path d="M193.218 44.1066C193.218 44.1066 191.824 48.8999 191.824 52.8312C191.824 56.7624 191.918 63.5683 194.703 63.5683C197.488 63.5683 201.482 62.8013 202.41 57.241C203.338 51.6808 202.41 45.5439 199.625 44.1066C196.84 42.6693 193.218 44.1066 193.218 44.1066Z" fill="#FF7446"/>
<path d="M194.305 47.6472C195.054 47.339 195.829 48.0079 195.686 48.8274C195.456 50.1411 195.513 51.5813 196.743 51.881C199.11 52.459 200.229 51.881 200.617 52.2815C201.005 52.682 199.497 54.8138 200.617 55.2143C201.736 55.6148 202.339 51.7929 203.328 51.7929C204.317 51.7929 204.533 57.302 203.328 58.5462C202.123 59.7903 203.5 61.4804 205.093 61.4804C206.686 61.4804 204.892 63.4801 207.037 64.1462C209.181 64.8123 210.904 64.8123 211.592 62.1025C212.28 59.3927 211.592 57.8801 211.592 57.8801C211.592 57.8801 213.785 55.3236 213.228 52.7842C212.919 51.3768 211.493 48.8445 211.493 48.8445C211.493 48.8445 210.387 45.8378 210.086 44.1037C209.785 42.3695 205.516 40.6383 202.593 40.3272C199.67 40.0162 201.133 38.238 198.68 38.238C196.227 38.238 195.889 41.4776 195.889 41.4776C195.889 41.4776 192.385 39.3842 192.223 39.4893C190.184 40.7306 191.879 42.9121 191.879 42.9121C191.879 42.9121 190.2 43.0896 189.856 45.2669C189.512 47.4441 190.931 48.7706 193.169 48.0605C193.594 47.9185 193.971 47.785 194.305 47.6472Z" fill="#100062"/>
<path d="M191.881 39.7278C192.45 39.8227 193.011 39.957 193.562 40.1297C194.61 40.712 195.889 41.4775 195.889 41.4775C195.889 41.4775 200.462 42.7558 203.082 44.0042C206.441 45.6048 209.384 47.2097 211.361 48.4737C211.443 48.7066 211.493 48.8444 211.493 48.8444C211.493 48.8444 212.017 49.7746 212.499 50.8228C210.419 50.3683 206.356 48.8018 201.825 46.643C196.708 44.2058 191.592 39.9721 191.881 39.7278Z" fill="#0C004A"/>
<path d="M201.776 51.4932C201.776 51.4932 202.96 49.3145 204.013 50.5303C205.066 51.746 204.514 56.8859 202.895 56.8859C201.275 56.8859 201.208 52.8708 201.776 51.4932Z" fill="#FF7446"/>
<path d="M214.903 67.0407C214.903 67.0407 211.602 69.5503 211.662 80.6509C211.693 86.5691 213.431 96.5961 214.504 100.223C218.948 98.8188 225.216 98.7279 229.756 100.223C230.367 95.3804 229.133 85.0452 228.361 81.7062C226.465 73.4943 219.619 65.1617 214.903 67.0407Z" fill="#FCC332"/>
<path d="M194.93 40.3074C197.124 35.7044 202.671 33.7672 207.318 35.9884C211.964 38.2097 213.955 43.7288 211.76 48.3318C211.676 48.5094 211.585 48.6812 211.49 48.8502L194.694 40.8485C194.769 40.6639 194.845 40.485 194.93 40.3074Z" fill="#FCB500"/>
<path d="M198.421 42.4064C198.492 42.2274 198.563 42.0485 198.654 41.871C199.535 40.0379 200.996 38.5462 202.811 37.6266C204.626 36.7069 206.693 36.4107 208.693 36.7836C208.258 36.48 207.798 36.2139 207.318 35.9883C202.669 33.7727 197.121 35.7042 194.927 40.3129C194.842 40.4905 194.767 40.6694 194.694 40.8484L211.49 48.8501C211.524 48.789 198.421 42.4064 198.421 42.4064Z" fill="#FCC332"/>
<path d="M187.197 37.498C187.375 37.1231 196.121 40.6879 201.712 43.3509C207.304 46.0138 211.69 48.478 211.517 48.8529C211.343 49.2279 202.06 47.0506 196.469 44.3876C190.877 41.7247 187.018 37.873 187.197 37.498Z" fill="#FC9700"/>
<path d="M21.8472 202.628C21.8472 202.628 19.8707 204.581 19.8266 205.298C19.7826 206.015 19.6518 213.696 20.4575 214.413C21.2632 215.13 23.6348 215.639 22.8732 216.445C22.2977 217.055 17.8671 216.924 14.9314 216.761C14.0788 216.714 12.9989 209.786 12.6579 208.767C12.1648 207.288 10.6074 203.568 11.055 202.537C11.2739 202.035 12.6778 201.392 14.1499 200.429C15.6987 199.415 17.1794 197.163 17.1794 197.163L21.8472 202.628Z" fill="#F7A491"/>
<path d="M48.2856 207.427C48.2856 207.427 46.5165 212.489 46.5151 212.501C46.383 213.304 45.8657 215.285 45.8657 216.014C45.8657 218.752 58.0576 213.689 55.3251 212.476C55.0778 212.365 54.302 211.482 54.2195 210.556C54.0945 209.12 55.2469 207.319 55.2469 207.319L48.2856 207.427Z" fill="#F7A491"/>
<path d="M47.271 117.177L40.9591 124.537L34.7708 163.04L15.2938 198.959C15.2938 198.959 18.2224 203.453 21.3669 204.16L49.0117 167.857L63.9943 122.409L63.4685 112.311L47.271 117.177Z" fill="#184655"/>
<path d="M63.0707 110.074L67.433 123.521C67.433 123.521 71.2696 163.572 70.7268 166.339C69.3939 173.069 55.9289 209.726 55.9289 209.726L47.3023 208.628L56.7701 165.288L40.9975 124.572L63.0707 110.074Z" fill="#355389"/>
<path d="M104.952 64.2982C102.912 66.5478 103.355 66.8177 103.086 67.0989C102.768 67.4312 96.8483 68.691 96.8483 68.691C96.8483 68.691 79.4273 72.5257 78.4781 72.7003L60.4064 68.5916L56.0014 77.3431C56.0014 77.3431 75.7698 81.2687 76.8355 81.2858C77.9012 81.3028 100.84 73.25 102.882 72.6095C102.882 72.6095 105.599 72.7856 107.308 72.8381C109.017 72.8907 110.65 72.1479 111.133 72.0854C112.361 71.8258 113.55 71.4095 114.671 70.8469C116.274 70.053 114.396 70.0374 114.396 70.0374C114.396 70.0374 111.166 70.9506 111.137 70.6722C111.116 70.4564 112.909 70.0672 114.69 69.2065C115.149 68.985 115.601 68.7648 116.014 68.5589C117.098 68.0206 117.083 67.1671 115.859 67.5434C115.302 67.7077 114.758 67.9132 114.231 68.1584C113.708 68.424 113.144 68.4893 112.668 68.6413C111.73 68.9438 111.049 69.1767 111.058 69.1298C111.066 69.083 110.84 68.9878 111.319 68.7393C111.896 68.4382 113.259 68.0817 114.073 67.5704C114.535 67.2793 115.535 66.7339 115.535 66.7339C115.535 66.7339 117.205 65.6431 117.042 65.4187C116.686 64.9259 115.52 65.4187 114.943 65.9045C114.423 66.0124 113.387 66.6146 113.387 66.6146C113.387 66.6146 111.022 67.3432 110.914 66.9938C110.87 66.8518 112.091 66.1416 113.309 65.3051C114.597 64.4118 115.483 63.7045 115.359 63.4176C115.163 62.9603 114.08 63.5951 114.08 63.5951C114.08 63.5951 113.124 64.1547 112.791 64.3152C112.404 64.5041 111.196 64.9742 111.196 64.9742C111.196 64.9742 106.919 66.4058 106.843 66.0664C106.768 65.7269 106.907 64.7881 107.142 64.5964C107.376 64.4047 107.979 64.3124 108.213 64.1249C108.448 63.9374 108.914 63.4943 108.715 63.1747C108.516 62.8552 106.735 63.2827 106.735 63.2827C106.735 63.2827 105.54 63.6491 104.952 64.2982Z" fill="#F8A492"/>
<path d="M66.6032 69.5204C66.6032 69.5204 65.9823 73.3551 65.5815 74.7753C65.249 75.9541 62.9101 80.8057 62.9101 80.8057C62.9101 80.8057 54.5265 78.0604 50.5705 76.4896C45.7677 74.5836 40.2132 70.4791 40.5741 69.9564C41.5858 68.5007 43.2199 66.7978 45.5247 66.2226C53.5005 64.2328 66.6032 69.5204 66.6032 69.5204Z" fill="#3C8F7C"/>
<path d="M67.5709 123.239C59.5766 126.393 40.7858 124.572 40.7858 124.572C40.7858 124.572 41.9766 116.375 42.3972 110.836C42.8178 105.297 39.291 96.5336 37.7975 81.3256C37.4821 78.1002 38.7439 69.3955 43.2682 66.6573C44.8583 65.6972 45.8259 65.5722 45.8259 65.5722C45.8686 65.5722 52.0498 64.311 55.2043 65.2882C56.1009 66.0863 58.8988 68.3914 60.5016 71.087C62.6146 74.6575 64.3482 78.7748 64.756 80.1283C66.5776 86.1601 67.3521 103.621 67.3521 106.914C67.3521 110.208 67.5709 123.239 67.5709 123.239Z" fill="#50BFA5"/>
<path d="M60.5101 71.0813C60.5101 71.0813 60.4973 71.0813 60.4902 71.0898C57.4181 72.0442 45.8302 65.6048 45.8302 65.6048V65.5721L47.2355 56.3874C47.2355 56.3874 54.4682 54.6831 54.0476 57.2949C53.627 59.9068 55.0281 65.1177 55.0281 65.1177C55.0735 65.1645 55.1332 65.2185 55.2085 65.2824C56.1094 66.0806 58.903 68.3856 60.5101 71.0813Z" fill="#F7A491"/>
<path d="M54.0504 57.2922C54.4767 54.6832 47.2383 56.3861 47.2383 56.3861L47.1218 57.1502C47.3046 57.6197 47.5703 58.0527 47.9062 58.4284C49.5218 60.1554 52.0469 61.1922 54.2309 61.2689C54.0121 59.8728 53.8785 58.3645 54.0504 57.2922Z" fill="#FE875E"/>
<path d="M45.8401 42.2658C45.6199 42.1862 44.0653 53.6349 47.0138 56.785C49.9623 59.9351 55.7073 60.9676 57.7677 58.4893C60.0412 55.7439 59.9332 43.4346 55.352 40.1979C50.7709 36.9611 45.8401 42.2658 45.8401 42.2658Z" fill="#F7A491"/>
<path d="M53.6028 34.071C50.0604 34.7883 47.7655 36.9385 46.9243 37.8546C45.3158 38.0421 43.1289 38.9255 40.871 42.638C38.0902 47.2084 40.1421 52.2602 43.3733 54.7357C46.6046 57.2112 46.5691 60.0971 46.5691 60.0971C46.5691 60.0971 52.0455 57.2879 51.514 52.9604C51.2909 51.1439 50.5037 50.732 51.0877 49.3089C51.7016 47.8333 51.2426 45.5381 51.3563 43.5455L51.686 42.2886C51.686 42.2886 53.9794 40.5161 56.2231 41.0104C58.4668 41.5046 58.1499 33.1479 53.6028 34.071Z" fill="#13375B"/>
<path d="M51.9915 50.509C52.0156 51.9051 51.7314 53.0243 50.9187 53.0385C50.1059 53.0527 49.8771 52.5045 49.205 50.5332C48.5755 48.6868 49.3471 47.9923 50.1528 47.9767C50.9584 47.9611 51.9688 49.1115 51.9915 50.509Z" fill="#F7A491"/>
<path d="M14.2465 200.379C14.2465 200.379 18.3744 213.055 20.1577 213.683C20.6309 213.849 23.3307 214.589 23.7584 215.607C23.7708 215.636 23.7798 215.667 23.7854 215.698C23.9275 216.343 23.3819 216.938 22.7225 216.938H14.265C14.265 216.938 13.0643 211.213 12.5897 208.701C12.5897 208.701 10.076 202.555 10.3559 201.996C10.6359 201.436 14.2465 200.379 14.2465 200.379Z" fill="#3C8F7C"/>
<path d="M45.1723 216.917L46.5677 212.449C46.5677 212.449 49.5005 213.706 50.9727 213.497C52.4448 213.288 55.3009 212.449 55.3009 212.449C61.151 214.4 65.9453 215.347 65.0728 216.917H45.1794H45.1723Z" fill="#3C8F7C"/>
<path d="M105.454 83.649C102.754 85.2809 102.92 85.4755 102.569 85.6757C102.154 85.9129 95.7485 85.6331 95.7485 85.6331C95.7485 85.6331 76.8838 84.923 75.8664 84.8562L58.4767 76.4214L51.622 83.6646C51.622 83.6646 70.805 92.3495 71.8906 92.6321C72.9762 92.9147 98.6231 90.9761 100.888 90.8767C100.888 90.8767 103.622 91.7288 105.357 92.2018C107.092 92.6747 108.965 92.3793 109.478 92.4404C110.799 92.4995 112.122 92.3998 113.42 92.1435C115.274 91.787 113.356 91.3027 113.356 91.3027C113.356 91.3027 109.803 91.3652 109.85 91.0925C109.886 90.8823 111.827 90.959 113.883 90.5855C114.411 90.4889 114.933 90.3924 115.41 90.3015C116.666 90.0586 116.88 89.2434 115.525 89.2945C114.911 89.3115 114.299 89.3717 113.694 89.4749C113.087 89.5956 112.492 89.5175 111.967 89.5431C110.924 89.597 110.224 89.6467 110.245 89.6041C110.266 89.5615 110.002 89.4181 110.561 89.3002C111.231 89.1582 112.723 89.1582 113.694 88.8741C114.244 88.7136 115.415 88.448 115.415 88.448C115.415 88.448 116.803 87.62 116.794 87.5093C116.743 86.9128 115.751 87.1968 115.031 87.5093C114.463 87.4809 113.246 87.7933 113.246 87.7933C113.246 87.7933 110.629 87.8956 110.613 87.5377C110.613 87.3956 112.116 87.2976 113.674 86.8034C115.456 86.2353 115.898 85.4371 115.847 85.1204C115.77 84.6361 114.765 85.0906 114.765 85.0906C114.765 85.0906 113.39 85.7169 113.007 85.7865C112.558 85.8689 106.677 85.9754 106.691 85.6331C106.705 85.2908 107.274 84.8435 107.564 84.727C107.854 84.6105 108.405 84.45 108.693 84.3322C108.982 84.2143 109.182 83.622 109.066 83.2613C108.949 82.9006 107.669 83.0966 107.669 83.0966C107.669 83.0966 106.231 83.1775 105.454 83.649Z" fill="#F8A492"/>
<path d="M56.773 91.4179C56.773 91.4179 60.1961 87.1032 61.3854 85.3548C62.9405 83.0321 64.3637 80.6238 65.6483 78.1414C65.6483 78.1414 56.1066 72.6507 52.5528 70.7845C39.5098 63.9133 39.8124 74.1604 40.4192 76.4342C41.7762 81.5159 56.773 91.4179 56.773 91.4179Z" fill="#96D9C9"/>
<path d="M105.171 69.056C106.299 68.4126 107.172 67.4043 106.885 66.136C107.851 67.1401 106.633 68.9949 105.171 69.056Z" fill="#FE875E"/>
</svg>
