<svg width="24" height="127" viewBox="0 0 24 127" fill="none" xmlns="http://www.w3.org/2000/svg">
<path d="M12.894 24L12.894 95" stroke="#97A0C7" stroke-width="1.14039" stroke-linecap="round" stroke-dasharray="2.28 2.28"/>
<path fill-rule="evenodd" clip-rule="evenodd" d="M12.447 0C18.2075 0 22.894 4.68653 22.894 10.447C22.894 16.2075 18.2075 20.894 12.447 20.894C6.68653 20.894 2 16.2075 2 10.447C2 4.68653 6.68653 0 12.447 0ZM12.447 1.56705C7.5505 1.56705 3.56705 5.5505 3.56705 10.447C3.56705 15.3435 7.5505 19.327 12.447 19.327C17.3435 19.327 21.327 15.3435 21.327 10.447C21.327 5.5505 17.3435 1.56705 12.447 1.56705ZM12.0931 5.32317C12.5266 5.32317 12.8766 5.67419 12.8766 6.10669V10.7264L16.4338 12.8471C16.8047 13.0696 16.9269 13.5502 16.7054 13.9221C16.5581 14.1676 16.298 14.3045 16.0316 14.3045C15.8947 14.3045 15.7568 14.2689 15.6304 14.1948L11.6919 11.8452C11.4558 11.7032 11.3095 11.4472 11.3095 11.1714V6.10669C11.3095 5.67419 11.6606 5.32317 12.0931 5.32317Z" fill="#F47400"/>
<g filter="url(#filter0_d_520_242)">
<path d="M15.894 111.5C15.894 113.433 14.327 115 12.394 115C10.461 115 8.89404 113.433 8.89404 111.5C8.89404 109.567 10.461 108 12.394 108C14.327 108 15.894 109.567 15.894 111.5Z" fill="#FFFFFE"/>
</g>
<path d="M11.7151 111.685C10.2198 109.925 6.89404 105.66 6.89404 103.264C6.89404 100.357 9.35644 98 12.394 98C15.4305 98 17.894 100.357 17.894 103.264C17.894 105.66 14.5425 109.925 13.0729 111.685C12.7206 112.105 12.0675 112.105 11.7151 111.685V111.685ZM12.394 105.018C13.4052 105.018 14.2274 104.231 14.2274 103.264C14.2274 102.296 13.4052 101.509 12.394 101.509C11.3828 101.509 10.5607 102.296 10.5607 103.264C10.5607 104.231 11.3828 105.018 12.394 105.018Z" fill="#F47400"/>
<defs>
<filter id="filter0_d_520_242" x="0.894043" y="104" width="23" height="23" filterUnits="userSpaceOnUse" color-interpolation-filters="sRGB">
<feFlood flood-opacity="0" result="BackgroundImageFix"/>
<feColorMatrix in="SourceAlpha" type="matrix" values="0 0 0 0 0 0 0 0 0 0 0 0 0 0 0 0 0 0 127 0" result="hardAlpha"/>
<feOffset dy="4"/>
<feGaussianBlur stdDeviation="4"/>
<feComposite in2="hardAlpha" operator="out"/>
<feColorMatrix type="matrix" values="0 0 0 0 0 0 0 0 0 0 0 0 0 0 0 0 0 0 0.5 0"/>
<feBlend mode="normal" in2="BackgroundImageFix" result="effect1_dropShadow_520_242"/>
<feBlend mode="normal" in="SourceGraphic" in2="effect1_dropShadow_520_242" result="shape"/>
</filter>
</defs>
</svg>
