<svg width="54" height="54" viewBox="0 0 54 54" fill="none" xmlns="http://www.w3.org/2000/svg">
<g filter="url(#filter0_d_503_105)">
<circle cx="26.6951" cy="26.6951" r="22.6951" fill="white"/>
<g clip-path="url(#clip0_503_105)">
<path d="M38.096 24.167L28.4532 24.1665C28.0274 24.1665 27.6823 24.5116 27.6823 24.9374V28.0179C27.6823 28.4436 28.0274 28.7888 28.4532 28.7888H33.8834C33.2888 30.3319 32.179 31.6243 30.763 32.4454L33.0785 36.4537C36.7927 34.3055 38.9886 30.5365 38.9886 26.3173C38.9886 25.7165 38.9444 25.287 38.8558 24.8035C38.7885 24.4361 38.4695 24.167 38.096 24.167Z" fill="#167EE6"/>
<path d="M27.1676 33.4173C24.5102 33.4173 22.1903 31.9653 20.9443 29.8167L16.9362 32.127C18.9759 35.6621 22.7969 38.0426 27.1676 38.0426C29.3118 38.0426 31.335 37.4653 33.0778 36.4593V36.4538L30.7624 32.4455C29.7032 33.0598 28.4776 33.4173 27.1676 33.4173Z" fill="#12B347"/>
<path d="M33.0791 36.4592V36.4537L30.7637 32.4454C29.7045 33.0596 28.479 33.4172 27.1689 33.4172V38.0425C29.3131 38.0425 31.3364 37.4652 33.0791 36.4592Z" fill="#0F993E"/>
<path d="M19.9739 26.2222C19.9739 24.9124 20.3313 23.6869 20.9455 22.6278L16.9374 20.3176C15.9258 22.0549 15.3485 24.0726 15.3485 26.2222C15.3485 28.3719 15.9258 30.3896 16.9374 32.1269L20.9455 29.8167C20.3313 28.7576 19.9739 27.5321 19.9739 26.2222Z" fill="#FFD500"/>
<path d="M27.1676 19.0273C28.9006 19.0273 30.4923 19.643 31.7356 20.6673C32.0424 20.9199 32.4882 20.9017 32.7691 20.6207L34.9517 18.4381C35.2705 18.1194 35.2478 17.5975 34.9073 17.3021C32.8242 15.495 30.1138 14.4019 27.1676 14.4019C22.7969 14.4019 18.9759 16.7825 16.9362 20.3176L20.9443 22.6278C22.1903 20.4792 24.5102 19.0273 27.1676 19.0273Z" fill="#FE724C"/>
<path d="M31.737 20.6673C32.0437 20.9199 32.4895 20.9017 32.7705 20.6207L34.9531 18.4381C35.2718 18.1194 35.2491 17.5975 34.9086 17.3021C32.8255 15.4949 30.1151 14.4019 27.1689 14.4019V19.0273C28.9018 19.0273 30.4937 19.643 31.737 20.6673Z" fill="#D93F21"/>
</g>
</g>
<defs>
<filter id="filter0_d_503_105" x="0" y="0" width="53.3901" height="53.3901" filterUnits="userSpaceOnUse" color-interpolation-filters="sRGB">
<feFlood flood-opacity="0" result="BackgroundImageFix"/>
<feColorMatrix in="SourceAlpha" type="matrix" values="0 0 0 0 0 0 0 0 0 0 0 0 0 0 0 0 0 0 127 0" result="hardAlpha"/>
<feOffset/>
<feGaussianBlur stdDeviation="2"/>
<feComposite in2="hardAlpha" operator="out"/>
<feColorMatrix type="matrix" values="0 0 0 0 0 0 0 0 0 0 0 0 0 0 0 0 0 0 0.25 0"/>
<feBlend mode="normal" in2="BackgroundImageFix" result="effect1_dropShadow_503_105"/>
<feBlend mode="normal" in="SourceGraphic" in2="effect1_dropShadow_503_105" result="shape"/>
</filter>
<clipPath id="clip0_503_105">
<rect width="23.6407" height="23.6407" fill="white" transform="translate(15.3479 14.4019)"/>
</clipPath>
</defs>
</svg>
