<svg width="337" height="115" viewBox="0 0 337 115" fill="none" xmlns="http://www.w3.org/2000/svg">
<path d="M177.898 94.1307C174.518 94.1307 171.4 93.5772 168.532 92.4702C165.664 91.3632 163.187 89.8081 161.088 87.8049C158.99 85.8017 157.357 83.4427 156.182 80.7279C155.008 78.013 154.414 75.0478 154.414 71.8321C154.414 68.6165 155.002 65.6513 156.182 62.9364C157.357 60.2216 159.003 57.8626 161.122 55.8594C163.241 53.8562 165.731 52.3011 168.599 51.1941C171.467 50.087 174.585 49.5335 177.966 49.5335C181.219 49.5335 184.276 50.0673 187.144 51.1282C190.012 52.1956 192.428 53.7903 194.391 55.9187L191.375 58.8641C189.533 57.0257 187.501 55.7012 185.281 54.8841C183.054 54.0736 180.659 53.6651 178.094 53.6651C175.402 53.6651 172.898 54.1132 170.59 55.0159C168.282 55.9121 166.271 57.1904 164.557 58.8378C162.85 60.4851 161.507 62.4093 160.549 64.6035C159.584 66.7978 159.104 69.2095 159.104 71.8387C159.104 74.4679 159.584 76.8862 160.549 79.0739C161.514 81.2682 162.85 83.1857 164.557 84.8397C166.271 86.487 168.275 87.7654 170.59 88.6615C172.898 89.5577 175.402 90.0123 178.094 90.0123C180.659 90.0123 183.054 89.5906 185.281 88.7604C187.508 87.9235 189.539 86.5859 191.375 84.7474L194.391 87.6929C192.421 89.8213 190.005 91.4291 187.144 92.5163C184.276 93.6036 181.198 94.1439 177.905 94.1439L177.898 94.1307ZM201.369 93.7551L221.904 49.8959H226.587L247.122 93.7551H242.115L223.247 52.591H225.17L206.302 93.7551H201.362H201.369ZM209.453 82.0391L210.864 78.2832H236.98L238.39 82.0391H209.453V82.0391ZM259.748 93.7551V49.8959H276.558C280.365 49.8959 283.637 50.489 286.377 51.6817C289.117 52.8744 291.223 54.5876 292.7 56.8214C294.178 59.0552 294.914 61.7635 294.914 64.933C294.914 68.0234 294.178 70.6856 292.7 72.9194C291.223 75.1532 289.117 76.8664 286.377 78.0591C283.637 79.2518 280.365 79.8449 276.558 79.8449H262.38L264.499 77.7165V93.7551H259.748V93.7551ZM290.419 93.7551L278.866 77.8417H284.002L295.616 93.7551H290.419ZM264.499 78.0921L262.38 75.8978H276.43C280.925 75.8978 284.332 74.9358 286.667 73.0182C289.002 71.0941 290.163 68.4056 290.163 64.933C290.163 61.4274 288.996 58.7126 286.667 56.7885C284.332 54.8644 280.925 53.9089 276.43 53.9089H262.38L264.499 51.7146V78.0921Z" fill="#F27635"/>
<path d="M309.456 69.5127H333.197V73.4597H309.456V69.5127ZM309.909 89.7488H336.989L336.922 93.7617H305.225L305.286 49.9025H336.024V53.9155H309.976L309.909 89.7554V89.7488Z" fill="#223A9C"/>
<path d="M36.3125 53.0062L80.3924 72.6888L79.036 75.6145L34.9561 55.9319L34.1261 53.8496L36.3193 53.0062H36.3125ZM34.1193 53.8496L34.7672 52.3143L36.3058 52.9996L34.1126 53.843L34.1193 53.8496ZM16.891 94.4207L34.1193 53.8496L37.1426 55.0818L19.9142 95.6529L18.4026 96.6413L16.891 94.4207ZM19.9142 95.6529L19.4958 96.6413H18.4026L19.9142 95.6529V95.6529ZM2.49012 93.4323H18.4026V96.6413H2.49012L0.98525 94.4009L2.49012 93.4323ZM2.49012 96.6413H0L0.98525 94.4009L2.49012 96.6413ZM31.7979 32.4801L3.99499 95.6727L0.98525 94.4009L28.7882 31.2083L31.0759 30.4374L31.7912 32.4867L31.7979 32.4801ZM28.7882 31.2083L29.5035 29.5873L31.0826 30.4308L28.7949 31.2018L28.7882 31.2083ZM78.9212 59.7537L29.5103 33.2577L31.0826 30.4374L80.4936 56.9334L80.5543 59.7142L78.9212 59.7471V59.7537ZM80.5543 59.7208L79.7513 60.2018L78.9212 59.7603L80.5543 59.7274V59.7208ZM127.016 32.1638L80.5543 59.7208L78.8605 56.973L125.322 29.416L127.678 30.1606L127.016 32.1638V32.1638ZM125.322 29.416L126.942 28.454L127.678 30.1606L125.322 29.416ZM152.464 95.6727L124.661 31.4192L127.678 30.1606L155.481 94.4141L153.976 96.6479L152.471 95.6727H152.464ZM155.481 94.4141L156.446 96.6479H153.969L155.474 94.4141H155.481ZM138.056 93.4388H153.969V96.6479H138.056L136.538 95.6529L138.056 93.4388ZM138.056 96.6479H136.957L136.538 95.6529L138.056 96.6479ZM122.158 52.7953L139.575 94.4273L136.545 95.6463L119.128 54.0143L119.89 51.9782L122.158 52.7953V52.7953ZM119.89 51.9782L121.476 51.1743L122.158 52.7953L119.89 51.9782V51.9782ZM78.9617 72.7283L119.89 51.9782L121.395 54.8314L80.4666 75.5815L79.036 75.6145L78.9617 72.7283V72.7283ZM80.4666 75.5815L79.758 75.9373L79.036 75.6145L80.4666 75.5815V75.5815Z" fill="#FEFEFE"/>
<path fill-rule="evenodd" clip-rule="evenodd" d="M79.7108 74.1583L35.631 54.4691L18.4026 95.0401H2.49011L30.2931 31.8476L79.7108 58.3436L126.166 30.7867L153.969 95.0401H138.057L120.639 53.4082L79.7108 74.1583Z" fill="#223A9C"/>
<path fill-rule="evenodd" clip-rule="evenodd" d="M43.6142 13.5223C32.9046 5.22626 25.3938 15.2488 37.4665 15.3476C39.329 15.3608 39.0253 15.0511 40.2873 15.9011C41.5154 19.354 32.2973 16.2042 31.3458 22.708C30.9274 25.548 31.2041 27.795 33.4985 29.0207C35.1181 29.8839 38.0603 31.5774 39.7474 31.9991C39.0726 30.7603 36.245 27.4458 35.7659 25.8116C35.6309 25.3504 35.5567 25.3042 35.6107 24.7046C35.7929 22.7937 35.523 24.0588 36.191 23.3801C39.3762 20.5203 64.9725 33.4092 52.6096 38.5687L78.2059 51.9848C80.8175 53.1445 86.7222 48.8021 90.5823 46.5485C93.1399 45.0527 101.292 40.8619 102.412 39.4188C98.7882 34.2263 102.689 31.7685 108.506 29.0602C110.402 28.1772 117.326 25.469 119.613 25.9039C121.955 26.3519 121.098 26.7737 121.233 28.968C122.34 28.342 124.121 27.2876 125.41 26.7605C125.194 23.927 123.98 22.6751 121.496 21.6866C118.628 20.5467 116.307 21.2122 116.455 18.3392C120.275 18.0361 124.418 19.9602 125.444 15.6705C124.209 13.4894 121.651 13.2258 118.777 13.6278C115.396 14.1022 114.856 15.4399 112.973 16.0329C112.042 15.0643 111.252 13.8914 110.476 12.8634C109.491 11.5587 108.674 10.7218 107.689 9.38419C100.205 -0.770114 91.4933 1.11446 78.2936 0.613665C71.4441 0.350088 61.3622 -1.07323 55.8623 1.60208C50.0993 4.40917 46.9546 10.6691 43.6142 13.5158V13.5223ZM96.7097 33.686C91.1424 32.9216 86.1014 40.8684 73.0772 37.9032C67.7123 36.6842 66.6798 34.3515 62.6983 32.7042C55.7948 29.8378 57.8598 36.9346 59.972 40.0448C68.6503 52.8085 103.444 47.9191 96.7097 33.686ZM45.7061 14.9061C51.098 19.0904 93.2276 19.6439 103.944 19.1168C114.572 18.5896 108.189 13.7266 104.909 10.1683C94.1116 -1.5279 94.3276 4.47507 72.1122 2.65639C64.8915 2.06334 60.2892 0.508234 54.8771 4.41576C52.6569 6.01699 46.3877 12.0068 45.7061 14.9061V14.9061Z" fill="#A6A8AB"/>
<path d="M143.92 115C143.664 115 143.451 114.908 143.273 114.724C143.094 114.54 143 114.314 143 114.046C143 113.769 143.094 113.543 143.273 113.368C143.451 113.192 143.673 113.108 143.92 113.108C144.175 113.108 144.388 113.192 144.567 113.368C144.746 113.543 144.831 113.769 144.831 114.046C144.831 114.314 144.737 114.54 144.567 114.724C144.388 114.908 144.167 115 143.92 115ZM147.599 115C147.343 115 147.13 114.908 146.943 114.724C146.764 114.54 146.679 114.314 146.679 114.046C146.679 113.769 146.772 113.543 146.943 113.368C147.122 113.192 147.343 113.108 147.599 113.108C147.854 113.108 148.067 113.192 148.246 113.368C148.425 113.543 148.518 113.769 148.518 114.046C148.518 114.314 148.425 114.54 148.246 114.724C148.067 114.908 147.845 115 147.599 115ZM151.277 115C151.022 115 150.809 114.908 150.63 114.724C150.451 114.54 150.366 114.314 150.366 114.046C150.366 113.769 150.451 113.543 150.63 113.368C150.809 113.192 151.03 113.108 151.277 113.108C151.533 113.108 151.746 113.192 151.924 113.368C152.103 113.543 152.188 113.769 152.188 114.046C152.188 114.314 152.103 114.54 151.924 114.724C151.746 114.908 151.524 115 151.277 115ZM158.201 115C157.332 115 156.557 114.807 155.867 114.414C155.177 114.021 154.641 113.476 154.241 112.773C153.849 112.07 153.653 111.267 153.653 110.354C153.653 109.425 153.849 108.613 154.241 107.918C154.632 107.223 155.177 106.679 155.867 106.294C156.557 105.909 157.332 105.708 158.201 105.708C159.001 105.708 159.716 105.892 160.347 106.244C160.977 106.604 161.479 107.131 161.854 107.818C162.228 108.504 162.416 109.35 162.416 110.346C162.416 111.325 162.228 112.171 161.862 112.865C161.496 113.56 160.994 114.088 160.364 114.456C159.733 114.824 159.01 115 158.201 115V115ZM158.286 113.903C158.933 113.903 159.512 113.753 160.031 113.46C160.551 113.167 160.951 112.748 161.249 112.212C161.547 111.668 161.692 111.049 161.692 110.346C161.692 109.626 161.539 108.998 161.249 108.471C160.951 107.935 160.551 107.525 160.031 107.232C159.52 106.939 158.933 106.788 158.286 106.788C157.647 106.788 157.076 106.939 156.566 107.232C156.055 107.525 155.654 107.943 155.348 108.471C155.05 109.006 154.896 109.626 154.896 110.346C154.896 111.049 155.05 111.677 155.348 112.212C155.646 112.748 156.055 113.167 156.566 113.46C157.076 113.753 157.647 113.903 158.286 113.903ZM161.726 114.908V112.162L161.845 110.321L161.675 108.479V102.017H162.91V114.908H161.726V114.908ZM166.342 114.908V105.784H167.525V108.27L167.406 107.835C167.661 107.14 168.087 106.612 168.692 106.244C169.297 105.876 170.037 105.7 170.932 105.7V106.897C170.889 106.897 170.838 106.897 170.795 106.889C170.753 106.88 170.702 106.88 170.659 106.88C169.697 106.88 168.947 107.173 168.402 107.759C167.857 108.345 167.585 109.174 167.585 110.254V114.908H166.35H166.342ZM173.18 114.908L173.163 105.784H174.397V114.908H173.18ZM173.784 103.775C173.529 103.775 173.316 103.691 173.146 103.515C172.975 103.339 172.882 103.13 172.882 102.887C172.882 102.645 172.967 102.435 173.146 102.268C173.316 102.1 173.537 102.017 173.784 102.017C174.04 102.017 174.253 102.1 174.431 102.259C174.602 102.419 174.695 102.619 174.695 102.871C174.695 103.122 174.61 103.339 174.44 103.515C174.27 103.691 174.057 103.775 173.793 103.775H173.784ZM180.171 114.908L176.126 105.784H177.412L181.125 114.247H180.52L184.284 105.784H185.502L181.44 114.908H180.171V114.908ZM204.126 114.908L200.685 105.784H201.869L204.994 114.247H204.458L207.668 105.784H208.724L211.901 114.247H211.364L214.54 105.784H215.673L212.216 114.908H211.049L207.992 106.947H208.358L205.284 114.908H204.117H204.126ZM217.547 114.908L217.529 105.784H218.764V114.908H217.547ZM218.151 103.775C217.896 103.775 217.683 103.691 217.504 103.515C217.334 103.339 217.248 103.13 217.248 102.887C217.248 102.645 217.334 102.435 217.504 102.268C217.674 102.1 217.896 102.017 218.151 102.017C218.407 102.017 218.619 102.1 218.798 102.259C218.969 102.419 219.054 102.619 219.054 102.871C219.054 103.122 218.969 103.339 218.798 103.515C218.628 103.691 218.415 103.775 218.151 103.775V103.775ZM225.074 115C224.214 115 223.559 114.766 223.099 114.305C222.639 113.845 222.4 113.184 222.4 112.338V103.775H223.635V112.271C223.635 112.807 223.771 113.217 224.044 113.502C224.317 113.795 224.708 113.937 225.219 113.937C225.764 113.937 226.216 113.778 226.573 113.468L227.007 114.355C226.761 114.573 226.471 114.741 226.13 114.841C225.79 114.941 225.441 115 225.083 115H225.074ZM220.765 106.813V105.784H226.411V106.813H220.765ZM233.888 105.7C234.629 105.7 235.285 105.842 235.838 106.127C236.4 106.411 236.835 106.838 237.158 107.424C237.473 108.002 237.635 108.73 237.635 109.618V114.916H236.4V109.743C236.4 108.78 236.162 108.052 235.676 107.558C235.2 107.064 234.518 106.822 233.658 106.822C233.011 106.822 232.449 106.956 231.964 107.215C231.487 107.475 231.112 107.851 230.857 108.345C230.593 108.839 230.465 109.433 230.465 110.128V114.925H229.23V102.033H230.465V108.303L230.218 107.835C230.507 107.173 230.967 106.654 231.606 106.278C232.245 105.901 233.003 105.708 233.88 105.708L233.888 105.7ZM244.686 114.992C243.792 114.983 243 114.774 242.31 114.381C241.612 113.987 241.067 113.443 240.667 112.74C240.266 112.037 240.071 111.233 240.071 110.337C240.062 109.425 240.258 108.621 240.667 107.935C241.075 107.249 241.629 106.704 242.319 106.303C243.008 105.901 243.8 105.7 244.686 105.7C245.589 105.7 246.389 105.901 247.079 106.303C247.777 106.704 248.322 107.249 248.723 107.943C249.123 108.638 249.319 109.442 249.319 110.346C249.327 111.25 249.14 112.053 248.74 112.748C248.339 113.451 247.786 113.995 247.079 114.389C246.372 114.782 245.572 114.983 244.686 115V114.992ZM244.686 113.895C245.342 113.895 245.929 113.744 246.44 113.451C246.951 113.158 247.351 112.74 247.65 112.204C247.948 111.66 248.101 111.041 248.109 110.337C248.101 109.618 247.948 108.99 247.65 108.462C247.351 107.927 246.951 107.516 246.44 107.223C245.929 106.93 245.342 106.78 244.686 106.78C244.047 106.78 243.477 106.93 242.966 107.223C242.455 107.516 242.055 107.935 241.748 108.462C241.45 108.998 241.288 109.618 241.28 110.337C241.288 111.041 241.45 111.668 241.748 112.204C242.046 112.74 242.455 113.158 242.957 113.46C243.46 113.761 244.039 113.903 244.686 113.895ZM255.62 114.992C254.845 114.992 254.164 114.849 253.594 114.556C253.014 114.263 252.563 113.828 252.248 113.25C251.933 112.673 251.771 111.945 251.771 111.082V105.784H253.006V110.94C253.006 111.911 253.244 112.648 253.73 113.142C254.207 113.636 254.879 113.878 255.748 113.878C256.387 113.878 256.94 113.744 257.409 113.485C257.877 113.225 258.235 112.849 258.482 112.346C258.728 111.853 258.856 111.25 258.856 110.555V105.775H260.091V114.9H258.916V112.397L259.103 112.849C258.814 113.518 258.362 114.046 257.758 114.422C257.153 114.799 256.438 114.983 255.629 114.983L255.62 114.992ZM266.401 114.992C265.55 114.992 264.885 114.757 264.425 114.297C263.966 113.836 263.727 113.175 263.727 112.33V103.766H264.962V112.263C264.962 112.798 265.098 113.209 265.371 113.493C265.643 113.786 266.035 113.929 266.546 113.929C267.091 113.929 267.542 113.769 267.9 113.46L268.334 114.347C268.087 114.565 267.798 114.732 267.457 114.833C267.116 114.933 266.767 114.992 266.41 114.992H266.401ZM262.101 106.805V105.775H267.747V106.805H262.101ZM276.978 114.9L273.537 105.775H274.721L277.846 114.238H277.31L280.52 105.775H281.576L284.752 114.238H284.216L287.392 105.775H288.525L285.068 114.9H283.901L280.844 106.939H281.21L278.136 114.9H276.969H276.978ZM293.839 114.983C292.945 114.975 292.153 114.766 291.463 114.372C290.765 113.979 290.22 113.435 289.819 112.731C289.419 112.028 289.223 111.225 289.223 110.329C289.215 109.417 289.411 108.613 289.819 107.927C290.228 107.24 290.782 106.696 291.471 106.294C292.161 105.892 292.953 105.692 293.839 105.692C294.741 105.692 295.542 105.892 296.232 106.294C296.93 106.696 297.475 107.24 297.875 107.935C298.275 108.63 298.471 109.433 298.471 110.337C298.48 111.241 298.292 112.045 297.892 112.74C297.492 113.443 296.938 113.987 296.232 114.381C295.525 114.774 294.724 114.975 293.839 114.992V114.983ZM293.839 113.887C294.494 113.887 295.082 113.736 295.593 113.443C296.104 113.15 296.504 112.731 296.802 112.196C297.1 111.652 297.254 111.032 297.262 110.329C297.254 109.609 297.1 108.981 296.802 108.454C296.504 107.918 296.104 107.508 295.593 107.215C295.082 106.922 294.494 106.771 293.839 106.771C293.2 106.771 292.63 106.922 292.119 107.215C291.608 107.508 291.207 107.927 290.901 108.454C290.603 108.99 290.441 109.609 290.432 110.329C290.441 111.032 290.603 111.66 290.901 112.196C291.199 112.731 291.608 113.15 292.11 113.451C292.612 113.753 293.192 113.895 293.839 113.887ZM301.009 114.891V105.767H302.193V108.253L302.073 107.818C302.329 107.123 302.755 106.596 303.359 106.227C303.964 105.859 304.705 105.683 305.599 105.683V106.88C305.556 106.88 305.505 106.88 305.463 106.872C305.42 106.863 305.369 106.863 305.326 106.863C304.364 106.863 303.615 107.156 303.07 107.742C302.525 108.328 302.252 109.157 302.252 110.237V114.891H301.017H301.009ZM307.83 114.891V105.767H309.014V108.253L308.895 107.818C309.15 107.123 309.576 106.596 310.18 106.227C310.785 105.859 311.526 105.683 312.42 105.683V106.88C312.377 106.88 312.326 106.88 312.284 106.872C312.241 106.863 312.19 106.863 312.147 106.863C311.185 106.863 310.436 107.156 309.891 107.742C309.346 108.328 309.073 109.157 309.073 110.237V114.891H307.839H307.83ZM314.668 114.891L314.651 105.767H315.886V114.891H314.668ZM315.273 103.758C315.017 103.758 314.804 103.674 314.626 103.498C314.455 103.323 314.37 103.113 314.37 102.871C314.37 102.628 314.455 102.419 314.626 102.251C314.796 102.084 315.017 102 315.273 102C315.528 102 315.741 102.084 315.911 102.243C316.082 102.402 316.175 102.603 316.175 102.854C316.175 103.105 316.09 103.323 315.92 103.498C315.75 103.674 315.537 103.758 315.273 103.758V103.758ZM323.192 114.983C322.247 114.983 321.413 114.782 320.689 114.381C319.973 113.979 319.411 113.435 319.003 112.731C318.602 112.028 318.398 111.225 318.398 110.329C318.398 109.425 318.594 108.63 318.977 107.927C319.369 107.232 319.897 106.688 320.578 106.286C321.259 105.884 322.017 105.683 322.86 105.683C323.712 105.683 324.478 105.876 325.142 106.269C325.807 106.654 326.335 107.198 326.709 107.901C327.093 108.605 327.28 109.408 327.28 110.329C327.28 110.388 327.28 110.446 327.271 110.513C327.263 110.58 327.263 110.647 327.263 110.714H319.326V109.793H326.599L326.113 110.162C326.113 109.5 325.969 108.914 325.687 108.395C325.406 107.876 325.015 107.475 324.538 107.19C324.052 106.897 323.49 106.755 322.852 106.755C322.222 106.755 321.668 106.897 321.166 107.19C320.672 107.483 320.28 107.885 319.999 108.404C319.718 108.923 319.582 109.525 319.582 110.195V110.388C319.582 111.082 319.735 111.693 320.042 112.221C320.348 112.748 320.774 113.158 321.327 113.451C321.881 113.744 322.503 113.895 323.209 113.895C323.763 113.895 324.282 113.795 324.768 113.602C325.245 113.41 325.662 113.108 326.011 112.698L326.709 113.493C326.309 113.979 325.798 114.347 325.194 114.607C324.589 114.858 323.916 114.992 323.192 114.992V114.983ZM332.253 114.983C331.504 114.983 330.788 114.874 330.116 114.665C329.443 114.448 328.915 114.18 328.532 113.862L329.085 112.891C329.451 113.167 329.928 113.41 330.507 113.61C331.086 113.811 331.691 113.912 332.33 113.912C333.198 113.912 333.82 113.778 334.203 113.502C334.586 113.225 334.774 112.865 334.774 112.413C334.774 112.079 334.672 111.811 334.45 111.627C334.237 111.434 333.956 111.292 333.607 111.191C333.258 111.091 332.875 111.007 332.449 110.94C332.023 110.873 331.597 110.789 331.172 110.697C330.746 110.605 330.363 110.471 330.013 110.287C329.664 110.103 329.383 109.86 329.17 109.551C328.958 109.241 328.847 108.822 328.847 108.303C328.847 107.809 328.983 107.357 329.264 106.964C329.545 106.571 329.954 106.261 330.49 106.035C331.027 105.809 331.683 105.692 332.457 105.692C333.045 105.692 333.641 105.767 334.229 105.926C334.816 106.085 335.31 106.286 335.685 106.545L335.148 107.533C334.74 107.257 334.305 107.056 333.846 106.93C333.386 106.805 332.917 106.746 332.457 106.746C331.631 106.746 331.027 106.889 330.644 107.173C330.252 107.458 330.065 107.818 330.065 108.261C330.065 108.605 330.175 108.881 330.388 109.082C330.601 109.274 330.882 109.433 331.24 109.542C331.589 109.651 331.981 109.743 332.398 109.81C332.824 109.877 333.241 109.961 333.667 110.061C334.092 110.162 334.476 110.296 334.825 110.463C335.182 110.63 335.464 110.865 335.676 111.174C335.889 111.484 336 111.886 336 112.38C336 112.916 335.855 113.376 335.557 113.761C335.259 114.146 334.833 114.448 334.271 114.665C333.709 114.883 333.028 114.983 332.228 114.983H332.253ZM191.105 114.983C190.16 114.983 189.325 114.782 188.602 114.381C187.886 113.979 187.324 113.435 186.916 112.731C186.515 112.028 186.311 111.225 186.311 110.329C186.311 109.425 186.507 108.63 186.89 107.927C187.282 107.232 187.81 106.688 188.491 106.286C189.172 105.884 189.93 105.683 190.773 105.683C191.625 105.683 192.391 105.876 193.055 106.269C193.72 106.654 194.248 107.198 194.622 107.901C195.005 108.605 195.193 109.408 195.193 110.329C195.193 110.388 195.193 110.446 195.184 110.513C195.176 110.58 195.176 110.647 195.176 110.714H187.239V109.793H194.512L194.026 110.162C194.026 109.5 193.881 108.914 193.6 108.395C193.319 107.876 192.928 107.475 192.451 107.19C191.965 106.897 191.403 106.755 190.765 106.755C190.134 106.755 189.581 106.897 189.079 107.19C188.585 107.483 188.193 107.885 187.912 108.404C187.631 108.923 187.495 109.525 187.495 110.195V110.388C187.495 111.082 187.648 111.693 187.954 112.221C188.261 112.748 188.687 113.158 189.24 113.451C189.794 113.744 190.415 113.895 191.122 113.895C191.676 113.895 192.195 113.795 192.681 113.602C193.158 113.41 193.575 113.108 193.924 112.698L194.622 113.493C194.222 113.979 193.711 114.347 193.106 114.607C192.502 114.858 191.829 114.992 191.105 114.992V114.983Z" fill="#373435"/>
</svg>
