<svg width="24" height="16" viewBox="0 0 24 16" fill="none" xmlns="http://www.w3.org/2000/svg">
<path d="M15.6484 7.80416C15.6484 8.66763 15.2597 9.49574 14.5677 10.1063C13.8757 10.7169 12.9372 11.0599 11.9586 11.0599C10.98 11.0599 10.0415 10.7169 9.34952 10.1063C8.65755 9.49574 8.2688 8.66763 8.2688 7.80416C8.2688 6.94069 8.65755 6.11258 9.34952 5.50201C10.0415 4.89144 10.98 4.54843 11.9586 4.54843C12.9372 4.54843 13.8757 4.89144 14.5677 5.50201C15.2597 6.11258 15.6484 6.94069 15.6484 7.80416V7.80416Z" fill="#B9B9B9"/>
<path fill-rule="evenodd" clip-rule="evenodd" d="M0.151245 7.80409C0.151245 7.80409 4.57903 0.641495 11.9587 0.641495C19.3383 0.641495 23.7661 7.80409 23.7661 7.80409C23.7661 7.80409 19.3383 14.9667 11.9587 14.9667C4.57903 14.9667 0.151245 7.80409 0.151245 7.80409ZM11.9587 12.3621C13.3287 12.3621 14.6427 11.8819 15.6114 11.0271C16.5802 10.1723 17.1244 9.01295 17.1244 7.80409C17.1244 6.59523 16.5802 5.43588 15.6114 4.58109C14.6427 3.72629 13.3287 3.24608 11.9587 3.24608C10.5886 3.24608 9.27471 3.72629 8.30594 4.58109C7.33717 5.43588 6.79293 6.59523 6.79293 7.80409C6.79293 9.01295 7.33717 10.1723 8.30594 11.0271C9.27471 11.8819 10.5886 12.3621 11.9587 12.3621V12.3621Z" fill="#223A9C" fill-opacity="0.4"/>
<path fill-rule="evenodd" clip-rule="evenodd" d="M0 7.60333C0 7.60333 4.5 0.103333 12 0.103333C19.5 0.103333 24 7.60333 24 7.60333C24 7.60333 19.5 15.1033 12 15.1033C4.5 15.1033 0 7.60333 0 7.60333ZM12 12.3761C13.3924 12.3761 14.7277 11.8732 15.7123 10.9782C16.6969 10.0831 17.25 8.86914 17.25 7.60333C17.25 6.33753 16.6969 5.12356 15.7123 4.2285C14.7277 3.33345 13.3924 2.83061 12 2.83061C10.6076 2.83061 9.27226 3.33345 8.28769 4.2285C7.30312 5.12356 6.75 6.33753 6.75 7.60333C6.75 8.86914 7.30312 10.0831 8.28769 10.9782C9.27226 11.8732 10.6076 12.3761 12 12.3761V12.3761Z" fill="#B9B9B9"/>
</svg>
