<svg width="12" height="10" viewBox="0 0 12 10" fill="none" xmlns="http://www.w3.org/2000/svg">
<path d="M11.5543 5.54414H9.91627V3.96983H11.5543C11.8005 3.96983 12 3.77051 12 3.52432C12 3.27811 11.8005 3.07867 11.5543 3.07867H9.91627V0.894229C9.91627 0.575357 9.85326 0.341312 9.72904 0.198742C9.61099 0.0631118 9.45577 0 9.24083 0C9.03573 0 8.88636 0.0626766 8.77059 0.19746C8.64782 0.340175 8.58551 0.574656 8.58551 0.894374V3.07894H5.5042L4.19406 1.0964C4.08193 0.919474 3.9765 0.753739 3.87412 0.594654C3.78195 0.451382 3.69204 0.334734 3.60712 0.247635C3.53194 0.170523 3.44627 0.110845 3.34606 0.0649737C3.25152 0.0218111 3.13131 0.000145097 2.98911 0.000145097C2.80773 0.000145097 2.64308 0.0498366 2.48542 0.151928C2.32941 0.252907 2.22156 0.377752 2.15569 0.533621C2.09788 0.681753 2.06729 0.908737 2.06729 1.20174V3.07879H0.445482C0.199395 3.07882 0 3.27826 0 3.52444C0 3.77063 0.199395 3.96995 0.445507 3.96995H2.06731V5.54443H0.445507C0.199395 5.54443 0 5.74383 0 5.99008C0 6.2362 0.199395 6.43545 0.445507 6.43545H2.06731V8.92952C2.06731 9.23896 2.13233 9.47064 2.26112 9.61785C2.3836 9.75822 2.53888 9.82339 2.74977 9.82339C2.95322 9.82339 3.1073 9.75793 3.23507 9.6173C3.36592 9.47323 3.4321 9.2417 3.4321 8.92955V6.43545H6.22034L7.72919 8.74913C7.83411 8.90208 7.94244 9.05645 8.05048 9.20782C8.14795 9.34374 8.2543 9.46351 8.3665 9.56354C8.46755 9.65403 8.57588 9.72033 8.68849 9.76079C8.80441 9.80252 8.9399 9.82368 9.09025 9.82368C9.4983 9.82368 9.91622 9.69876 9.91622 8.77232V6.43545H11.5543C11.8004 6.43545 12 6.23591 12 5.98979C12 5.74368 11.8005 5.54414 11.5543 5.54414ZM8.58548 3.96981V5.54412H7.13364L6.09336 3.96981H8.58548ZM3.43212 2.16087L4.03084 3.07867H3.43212V2.16087ZM3.43212 5.54414V3.96983H4.61219L5.63905 5.54414H3.43212ZM8.58548 7.74152L7.72264 6.43545H8.58548V7.74152Z" fill="#F47400"/>
</svg>
