<svg width="78" height="98" viewBox="0 0 78 98" fill="none" xmlns="http://www.w3.org/2000/svg">
<path d="M64.4405 11.7308C62.8242 11.5346 61.2588 11.9759 60.6218 13.2975C60.0935 13.9243 59.352 14.704 59.7406 15.7454C60.1086 16.3507 61.5735 17.0673 61.6989 15.4516C62.2691 14.0525 64.9013 14.178 66.3009 14.6683C67.2923 14.9112 67.4521 16.3506 68.5529 15.8433C68.5459 14.5758 67.5681 13.8604 67.4759 12.9058C66.9918 11.9753 66.6635 11.2825 65.2673 11.222C64.8963 11.1454 64.6978 11.5615 64.4405 11.7308V11.7308Z" fill="#1D1F2E"/>
<path d="M61.2095 16.5286C61.8239 17.609 61.4857 18.8016 61.8949 19.8577C62.7797 20.8329 63.684 20.5527 64.5386 20.0535C64.9022 19.4197 65.8771 19.5701 66.5948 18.9765C67.4057 18.5577 68.3308 17.6089 67.9656 16.2349C66.8727 15.0931 66.3522 14.8431 64.6351 14.7385C63.3589 14.5238 61.8876 14.9576 61.4927 15.6039C61.1634 15.7312 61.7115 16.4085 61.2095 16.5286Z" fill="#4B2D22"/>
<path d="M63.1678 20.5434C64.1647 21.547 62.9317 23.1714 63.6574 23.6767C64.5449 23.873 64.4198 25.9751 64.9303 24.3621C65.7863 23.7529 65.8888 22.5561 66.399 22.0121C66.8939 21.2622 67.0641 20.948 67.574 20.3476C67.1546 19.7033 68.0068 17.7422 67.1824 18.5851C66.2684 19.1444 65.6805 19.7043 64.7345 19.7601C64.395 20.2241 63.7355 20.283 63.1678 20.5434Z" fill="#4B2D22"/>
<path d="M64.6364 26.2224C65.003 25.4216 65.6033 24.5972 65.9092 23.6766C66.1903 23.0837 66.5605 22.403 67.0842 21.7183C67.6526 21.4573 67.7344 19.8907 68.3571 20.837C69.6305 21.677 68.3343 21.8529 68.3571 23.1031C68.2323 24.4312 68.6675 24.3591 67.9655 23.3828C67.0267 22.3421 65.7302 23.5016 65.8113 24.6557C65.4319 25.2078 65.2239 25.8021 64.6364 26.2224V26.2224Z" fill="#CF3914"/>
<path d="M64.3427 26.3204C64.3112 25.3 64.0174 24.0602 63.5593 23.4808C63.2936 22.0759 62.8188 22.7968 62.1885 23.5788C61.2668 24.8744 62.8055 23.9155 63.1398 24.5575C63.9728 24.9308 64.4184 25.4518 64.3427 26.3204V26.3204Z" fill="#1F232E"/>
<path d="M58.4677 25.4389C58.5711 26.6411 58.1576 27.9839 58.9573 28.9638C59.2007 30.314 59.4546 31.6919 59.349 33.1601C59.4681 35.3699 58.5853 37.2607 58.8821 39.4316C59.1524 41.0001 57.4228 44.3813 60.1323 43.5531C60.8928 43.3506 64.354 43.4173 62.8479 42.6337C62.9154 41.4241 63.1707 40.5249 63.0697 39.161C63.3036 37.8037 63.178 36.0478 62.7679 34.8474C62.5296 33.0174 62.1893 30.8831 62.6781 28.9638C62.6906 27.8541 63.7175 26.7425 62.9718 25.8305C62.2288 24.7665 62.7585 22.0926 61.2094 23.9702C60.7331 24.4073 60.2981 25.2003 59.5448 25.2431C59.2315 25.4589 58.9028 25.4342 58.4677 25.4389Z" fill="#C3351B"/>
<path d="M65.4198 42.2803C63.5503 42.2883 63.9107 39.6647 63.6573 38.2657C63.695 36.559 62.8023 35.5404 62.85 33.9085C62.959 32.4285 62.7413 30.9082 62.978 29.4577C63.2969 29.1184 63.6771 27.9913 63.9511 27.3972C64.3682 27.1485 64.6592 26.6461 65.0281 26.418C65.6604 25.753 66.1165 24.7166 66.5948 23.7743C67.1701 22.6634 67.5167 23.6876 68.0635 24.166C68.444 23.8193 68.2338 22.472 68.8363 21.6747C69.162 21.0463 70.7959 22.583 72.1479 21.914C73.081 21.7241 71.9703 22.7575 71.7843 23.3827C71.4643 24.7251 70.9006 25.9304 70.903 27.4531C70.8411 28.487 70.9545 29.7315 71.5884 30.3346C72.0645 31.5693 72.4502 32.7194 72.6655 33.8596C73.2385 34.8215 73.2574 36.0515 73.5685 37.2199C73.6008 38.5646 73.3648 40.025 73.7685 41.246C74.0303 43.2359 73.5442 44.8079 71.6863 43.5531C69.9983 42.9165 68.0198 43.3285 66.301 42.9657C65.8723 42.675 65.8148 42.7301 65.4198 42.2803V42.2803Z" fill="#CF3914"/>
<path d="M58.3697 28.1807C57.7656 29.7235 57.9546 31.3014 57.4885 32.6848C57.1948 34.1536 56.7223 35.6345 56.7051 37.1888C56.3929 38.3719 55.9028 39.628 55.7949 41.1486C55.9452 42.6236 55.3156 43.9116 55.1385 45.2179C54.7985 46.5529 54.8916 48.239 54.6489 49.624C55.7619 49.4291 57.9813 49.8174 57.5864 48.8407C57.4269 46.8037 57.6668 45.2352 58.3697 43.6512C59.3107 42.6006 58.796 40.4548 59.1292 39C59.4942 37.3705 59.6012 35.6984 59.5447 33.8877C59.6339 32.5217 59.4545 31.2651 58.9572 30.139C58.7532 29.4912 58.7479 28.801 58.3697 28.1807V28.1807Z" fill="#1C1F24"/>
<path d="M73.9383 22.7954C72.2771 22.0714 70.7819 23.6254 70.5113 24.6558C70.1404 26.1714 69.7688 28.3417 70.9029 29.4536C71.467 30.1075 72.1036 30.6677 72.3716 31.4119C72.7622 32.2632 73.1286 33.2008 73.3508 34.1535C73.5119 35.972 73.7334 37.7586 73.8439 39.4613C73.7353 41.6324 74.56 43.3628 74.4279 45.4137C72.8792 47.0501 75.7133 46.5728 76.2882 47.2741C77.7264 47.9717 76.8749 45.1186 77.4938 44.1745C77.2481 42.6909 78.3919 41.4216 77.8549 39.9305C77.3164 39.1575 76.9479 38.0617 76.8757 36.8951C76.5828 36.1445 76.9665 34.7206 76.6799 33.9577C76.5057 32.6036 76.2456 31.4123 76.0924 30.0411C75.5689 29.0589 75.9531 27.5007 75.407 26.4182C74.7962 25.3974 74.3565 23.9863 73.9383 22.7954V22.7954Z" fill="#1C1F24"/>
<path d="M58.7614 43.5532C58.1301 45.0188 57.4108 46.1305 57.3906 47.7635C57.1757 50.2746 57.3484 52.9481 57.2927 55.5266C57.212 57.8977 57.4801 59.1996 57.0974 61.5205C56.7196 62.9353 57.895 65.3609 57.6083 66.7548C57.2117 68.4606 56.6123 70.0318 56.5396 71.7039C56.2376 73.8759 54.5102 75.9529 54.4504 78.1456C54.9013 79.2204 57.3536 78.1827 58.3697 78.9984C59.6271 79.3004 61.4639 80.6461 60.6981 77.9517C59.7314 76.456 59.7958 74.3461 60.3231 72.8273C60.7184 71.6281 60.6502 70.56 61.3072 69.5985C61.6268 68.0319 61.8919 66.7235 62.1884 65.2903C62.7697 63.2166 63.3079 62.1414 63.6571 60.3945C64.2025 59.6846 64.2866 58.1323 64.7342 57.0654C65.0425 55.8324 65.4581 54.6251 65.6154 53.2468C65.9183 52.1291 66.0238 50.6147 65.825 49.4067C65.9427 48.5322 64.5059 46.9652 65.5175 48.9385C65.9447 50.3348 65.9239 51.8827 66.3988 53.2468C66.8423 55.003 66.9369 56.7658 67.4914 58.5468C67.8582 59.4912 68.0753 60.6719 68.6508 61.5695C69.2558 62.3133 69.5614 63.8709 70.0216 64.8986C70.1226 66.2956 70.963 67.4312 70.8049 69.0111C71.1227 70.6926 71.2143 72.3836 71.4903 74.1026C71.7638 75.4264 71.3936 77.701 73.3926 77.138C74.4645 77.2169 75.7062 77.1381 75.9944 76.2568C75.5357 75.3077 75.5711 73.8031 75.2111 72.7318C75.2028 68.9151 75.2185 65.0907 75.2111 61.2758C74.695 59.895 74.7507 58.2988 74.4278 56.8696C74.37 55.2473 73.749 54.1193 73.8613 52.3975C73.4685 50.8956 73.4207 49.1086 73.4486 47.4279C73.2666 46.212 73.9736 44.0108 72.9135 43.6304C71.6135 43.7629 70.4679 43.5571 69.2803 43.3724C68.0792 43.2956 66.8259 42.9132 66.105 42.4761C64.9878 41.5879 63.9232 42.2125 63.0696 43.0636C61.9052 43.4809 60.3106 43.9468 58.7614 43.5532V43.5532Z" fill="#1F232E"/>
<path d="M54.5511 78.6068C54.287 79.5286 53.3994 80.292 52.2011 80.6631C51.1797 80.8373 51.0241 82.6187 51.8095 82.8172C52.4186 83.3849 53.8678 83.0197 54.9567 83.1109C56.533 83.4738 56.668 82.5916 57.4839 81.6837C58.4922 80.9053 59.3363 80.5773 60.426 80.2714C60.9807 79.5133 58.6736 80.599 58.3697 80.8589C57.0281 82.2806 60.2748 82.3327 60.7399 81.5271C61.6114 79.0528 59.2578 79.0341 57.8802 78.6068C56.9357 78.3293 55.6022 77.9154 54.5511 78.6068V78.6068Z" fill="#151516"/>
<path d="M71.203 77.2924C70.9769 78.2114 70.2532 79.2337 69.9356 80.1757C69.254 81.3256 72.3502 81.3193 72.829 80.6243C73.9094 80.3665 74.3682 79.5156 75.5121 79.3683C77.0323 78.397 76.1044 75.4435 73.7378 76.7157C72.9418 76.9415 72.1737 77.3565 71.203 77.2924V77.2924Z" fill="#1C1C1B"/>
<path d="M55.1386 49.8198C54.7733 50.9123 53.4467 52.3945 55.0407 53.4426C55.5713 54.7168 58.6986 53.736 56.1177 53.2468C55.4502 52.2839 57.1167 52.9265 57.4047 52.0859C58.1178 51.0807 57.6593 48.6266 56.4115 49.7219C55.8755 49.6308 55.6532 50.3245 55.1386 49.8198V49.8198Z" fill="#653C32"/>
<path d="M74.1342 46.6866C73.7681 47.557 71.6968 49.5173 74.1342 49.1345C74.5435 50.4182 73.1964 51.1599 72.9592 50.2116C72.8315 51.5999 74.4428 51.0571 75.2046 51.6057C76.383 51.7579 76.5218 50.6093 76.8758 49.9668C77.2629 48.8589 77.7124 46.5391 75.506 47.395C74.9548 47.2741 74.5134 47.2118 74.1342 46.6866Z" fill="#925E50"/>
<path d="M6.95728 56.1575C24.8209 54.2837 63.6447 53.5342 54.9267 51.6604L30.1925 52.7847L61.2977 54.1128L75.1638 49.7866L60.5481 54.1128L32.0663 55.7827C26.9531 39.887 19.4737 51.3125 6.95728 56.1575Z" fill="#816647" stroke="#606060" stroke-width="0.0157794"/>
<path d="M17.7652 0.701214C15.5781 0.435644 13.4598 1.03286 12.5978 2.82119C11.8828 3.66944 10.8795 4.72445 11.4053 6.13364C11.9033 6.95282 13.8856 7.92253 14.0553 5.73615C14.827 3.84293 18.3888 4.01268 20.2827 4.67616C21.6242 5.00488 21.8405 6.95262 23.3302 6.26614C23.3206 4.55104 21.9975 3.58288 21.8727 2.29119C21.2177 1.03207 20.7735 0.0944705 18.884 0.0126023C18.382 -0.0910546 18.1134 0.472079 17.7652 0.701214V0.701214Z" fill="#1D1F2E"/>
<path d="M13.3927 7.19353C14.2242 8.65556 13.7664 10.2693 14.3202 11.6985C15.5176 13.0181 16.7412 12.6389 17.8976 11.9635C18.3897 11.1057 19.7089 11.3093 20.6801 10.506C21.7774 9.93926 23.0293 8.65536 22.5351 6.79603C21.0562 5.251 20.3519 4.91274 18.0282 4.7711C16.3013 4.48059 14.3104 5.06761 13.776 5.94223C13.3304 6.11446 14.072 7.03097 13.3927 7.19353Z" fill="#4B2D22"/>
<path d="M16.0427 12.6261C17.3917 13.9842 15.7232 16.1823 16.7052 16.866C17.9061 17.1317 17.7369 19.9763 18.4277 17.7935C19.586 16.9691 19.7248 15.3496 20.4152 14.6136C21.0848 13.5988 21.3151 13.1735 22.0051 12.3611C21.4376 11.4892 22.5908 8.83544 21.4751 9.97612C20.2384 10.733 19.4428 11.4906 18.1627 11.5661C17.7033 12.194 16.8109 12.2736 16.0427 12.6261V12.6261Z" fill="#4B2D22"/>
<path d="M18.0302 20.3108C18.5263 19.2272 19.3387 18.1117 19.7526 16.8659C20.133 16.0636 20.6339 15.1424 21.3426 14.2159C22.1118 13.8628 22.2224 11.7428 23.0651 13.0234C24.7882 14.1601 23.0342 14.398 23.0651 16.0898C22.8962 17.8871 23.4851 17.7895 22.5351 16.4684C21.2647 15.0601 19.5103 16.6291 19.6201 18.1909C19.1067 18.9379 18.8252 19.7421 18.0302 20.3108V20.3108Z" fill="#CF3914"/>
<path d="M17.6326 20.4434C17.5901 19.0626 17.1925 17.3849 16.5727 16.6009C16.2131 14.6998 15.5705 15.6754 14.7177 16.7334C13.4704 18.4867 15.5526 17.1891 16.0049 18.0578C17.1321 18.5631 17.7351 19.2681 17.6326 20.4434Z" fill="#1F232E"/>
<path d="M9.68279 19.2508C9.82263 20.8776 9.2631 22.6947 10.3453 24.0208C10.6746 25.8478 11.0182 27.7124 10.8753 29.6991C11.0365 32.6894 9.84187 35.248 10.2434 38.1857C10.6093 40.3082 8.26872 44.8836 11.9353 43.763C12.9644 43.4889 17.6481 43.5792 15.6101 42.5188C15.7013 40.8819 16.0469 39.6652 15.9102 37.8196C16.2266 35.9828 16.0567 33.6068 15.5017 31.9824C15.1793 29.506 14.7188 26.6179 15.3802 24.0208C15.3971 22.5191 16.7868 21.0149 15.7777 19.7808C14.7722 18.3409 15.4891 14.7227 13.3927 17.2634C12.7483 17.8549 12.1596 18.928 11.1403 18.9858C10.7163 19.278 10.2716 19.2445 9.68279 19.2508V19.2508Z" fill="#C3351B"/>
<path d="M19.0902 42.0406C16.5604 42.0515 17.0481 38.5013 16.7052 36.6082C16.7562 34.2986 15.5482 32.9203 15.6127 30.712C15.7603 28.7092 15.4657 26.652 15.7859 24.6891C16.2175 24.23 16.732 22.7049 17.1027 21.9009C17.6672 21.5643 18.0609 20.8844 18.5602 20.5759C19.4158 19.676 20.0329 18.2736 20.6802 16.9984C21.4587 15.4951 21.9277 16.8811 22.6676 17.5284C23.1825 17.0592 22.898 15.2361 23.7134 14.1572C24.1542 13.3069 26.3651 15.3863 28.1947 14.481C29.4574 14.224 27.9544 15.6224 27.7026 16.4685C27.2696 18.285 26.5068 19.916 26.5101 21.9766C26.4263 23.3755 26.5797 25.0596 27.4376 25.8758C28.0818 27.5466 28.6037 29.1029 28.895 30.6457C29.6704 31.9474 29.696 33.6118 30.117 35.1929C30.1607 37.0126 29.8414 38.9888 30.3876 40.641C30.7419 43.3337 30.0841 45.461 27.5701 43.7631C25.2858 42.9015 22.6085 43.4591 20.2827 42.9681C19.7025 42.5748 19.6247 42.6493 19.0902 42.0406V42.0406Z" fill="#CF3914"/>
<path d="M9.55031 22.9608C8.7329 25.0485 8.98866 27.1838 8.35783 29.0557C7.96045 31.0434 7.32106 33.0473 7.29784 35.1506C6.8753 36.7516 6.21213 38.4513 6.06611 40.5089C6.26956 42.505 5.41757 44.2478 5.17788 46.0155C4.71773 47.822 4.84383 50.1037 4.51538 51.9779C6.02152 51.7141 9.0247 52.2395 8.49032 50.9179C8.27455 48.1615 8.59919 46.039 9.55031 43.8955C10.8236 42.4738 10.1271 39.5702 10.578 37.6015C11.072 35.3964 11.2168 33.1338 11.1403 30.6836C11.261 28.8351 11.0182 27.1346 10.3453 25.6108C10.0693 24.7343 10.0621 23.8003 9.55031 22.9608Z" fill="#1C1F24"/>
<path d="M30.6174 15.6734C28.3695 14.6937 26.3462 16.7966 25.9799 18.1909C25.4781 20.2419 24.9752 23.1786 26.5099 24.6833C27.2732 25.5681 28.1347 26.3262 28.4974 27.3332C29.0259 28.4852 29.5217 29.754 29.8224 31.0432C30.0404 33.504 30.3401 35.9216 30.4897 38.2256C30.3427 41.1636 31.4586 43.5051 31.2799 46.2805C29.1842 48.4949 33.0193 47.849 33.7973 48.7979C35.7434 49.742 34.5913 45.8811 35.4287 44.6036C35.0962 42.5959 36.644 40.8783 35.9173 38.8606C35.1886 37.8146 34.69 36.3318 34.5923 34.7531C34.1959 33.7374 34.7152 31.8106 34.3273 30.7782C34.0916 28.9459 33.7397 27.3338 33.5323 25.4783C32.8239 24.1491 33.3438 22.0406 32.6048 20.5758C31.7783 19.1945 31.1834 17.285 30.6174 15.6734V15.6734Z" fill="#1C1F24"/>
<path d="M10.0803 43.763C9.22594 45.7463 8.2526 47.2507 8.2253 49.4605C7.93457 52.8584 8.16821 56.4762 8.0928 59.9654C7.98358 63.1739 8.34647 66.457 7.82862 69.5977C7.31738 71.5122 6.87943 73.2732 6.49146 75.1594C5.95473 77.4677 5.14362 79.5938 5.04526 81.8565C4.63661 84.7957 4.32762 87.6062 4.2467 90.5734C4.85685 92.0279 8.17522 90.6236 9.55028 91.7274C11.2517 92.136 13.7372 93.9571 12.701 90.311C11.3928 88.287 11.48 85.432 12.1936 83.3767C12.7285 81.7539 12.6363 80.3085 13.5252 79.0075C13.9577 76.8876 14.3164 75.117 14.7177 73.1776C15.5043 70.3715 16.2326 68.9166 16.7052 66.5527C17.4431 65.592 16.8075 59.369 17.4131 57.9254C17.8303 56.2568 19.1422 58.7455 19.3551 56.8804C19.7649 55.368 19.9077 53.3186 19.6388 51.6839C19.798 50.5006 17.8537 48.3802 19.2226 51.0504C19.8007 52.9399 19.7726 55.0346 20.4151 56.8804C21.0153 59.2569 21.1434 61.6423 21.8936 64.0524C22.39 65.3303 22.6839 66.9281 23.4626 68.1427C24.2813 69.1491 24.6948 71.257 25.3175 72.6476C25.4542 74.538 26.5914 76.0747 26.3775 78.2125C26.8075 80.488 28.0558 82.7763 28.4293 85.1024C28.7994 86.8937 28.2984 89.9717 31.0035 89.2099C32.4539 89.3166 34.1341 89.21 34.5242 88.0174C33.9034 86.7331 33.9514 84.6972 33.4642 83.2475C33.4531 78.0827 31.2257 72.9075 31.2157 67.7452C30.5172 65.8767 30.5927 63.7167 30.1557 61.7828C30.0775 59.5875 30.3615 58.061 30.5134 55.7311C29.9819 53.6988 29.9171 51.2806 29.955 49.0062C29.7086 47.361 30.6654 44.3823 29.2309 43.8675C27.4717 44.0468 25.9214 43.7684 24.3144 43.5183C22.6891 43.4145 20.9931 42.8971 20.0176 42.3056C18.5058 41.1037 17.0652 41.9488 15.9102 43.1006C14.3345 43.6652 12.1767 44.2957 10.0803 43.763V43.763Z" fill="#1F232E"/>
<path d="M4.38275 91.1974C4.02547 92.4447 2.82437 93.4777 1.20279 93.9798C-0.179345 94.2156 -0.389894 96.6263 0.672803 96.8948C1.49709 97.663 3.45812 97.1689 4.9316 97.2923C7.06471 97.7833 7.24742 96.5896 8.3515 95.361C9.71591 94.3076 10.8581 93.8637 12.3326 93.4499C13.0833 92.424 9.96132 93.8931 9.55017 94.2448C7.73468 96.1687 12.1281 96.2392 12.7575 95.1491C13.9367 91.8009 10.7519 91.7755 8.88768 91.1974C7.60965 90.8218 5.80509 90.2617 4.38275 91.1974Z" fill="#151516"/>
<path d="M29.6218 89.2097C29.3854 90.2655 28.6289 91.4401 28.2968 92.5222C27.5842 93.8433 30.8212 93.8361 31.3217 93.0376C32.4513 92.7414 32.9308 91.7639 34.1267 91.5947C35.716 90.4788 34.7459 87.0856 32.2718 88.5472C31.4397 88.8066 30.6366 89.2833 29.6218 89.2097V89.2097Z" fill="#1C1C1B"/>
<path d="M4.53905 51.1609C4.44431 52.7168 3.22934 55.1189 5.67991 55.9306C6.81979 57.4102 10.5639 55.0329 7.01914 55.2974C5.80941 54.2726 8.21275 54.5289 8.29471 53.3292C8.87471 51.7655 7.41595 48.7185 6.16854 50.5871C5.43615 50.6558 5.38841 51.6403 4.53905 51.1609Z" fill="#653C32"/>
<path d="M30.8825 48.0029C30.3871 49.1807 27.5842 51.8334 30.8825 51.3154C31.4364 53.0525 29.6136 54.0562 29.2925 52.7729C29.1197 54.6516 31.3001 53.917 32.331 54.6593C33.9256 54.8654 34.1134 53.3111 34.5925 52.4416C35.1163 50.9424 35.7246 47.8033 32.7388 48.9614C31.9929 48.7979 31.3957 48.7136 30.8825 48.0029V48.0029Z" fill="#925E50"/>
</svg>
