<svg width="33" height="14" viewBox="0 0 33 14" fill="none" xmlns="http://www.w3.org/2000/svg">
<path fill-rule="evenodd" clip-rule="evenodd" d="M23.1949 4.67158C24.132 4.80066 24.4975 3.13029 23.3831 2.89387L15.4166 2.00501C14.892 1.93907 14.3925 1.93907 13.9232 1.94468C10.6774 1.98116 10.6161 5.1367 13.6609 4.5923L13.2368 4.48286C13.0209 4.42674 12.8449 4.28012 12.736 4.08859C12.6267 3.89612 12.5898 3.66522 12.6329 3.44388L12.64 3.4109C12.6935 3.1815 12.8262 2.99559 12.999 2.87913C13.1717 2.76338 13.3844 2.71708 13.5958 2.76759L15.8762 3.35759L18.7643 3.38635C18.9766 3.38857 19.1794 3.48199 19.3286 3.64624C19.4778 3.8105 19.5613 4.03228 19.561 4.26328L23.1949 4.67158ZM8.38669 4.91151V5.45099H23.5848L24.2848 4.68C24.6444 4.28292 24.986 3.73432 25.4301 3.46142C25.7865 3.24183 26.1739 3.091 26.8159 3.12117C27.0505 3.12117 27.2993 3.14993 27.5345 3.17448L27.8085 3.20044C28.8861 3.27551 29.3876 3.89286 29.7794 4.37272C29.9522 4.58599 30.1011 4.76699 30.2628 4.85117C30.3395 4.89046 30.4588 4.83504 30.5948 4.7733L31.5912 4.37062L32.2551 4.08088V4.07737C32.4736 3.99739 32.7037 4.12437 32.8552 4.32221C32.9112 4.42674 32.9518 4.53197 32.975 4.6372C32.9976 4.74033 33.0053 4.84416 32.9963 4.94939C32.8745 5.27701 32.6508 5.39487 32.3982 5.58639C32.1459 5.72801 31.8841 5.84855 31.6151 5.94698C31.4713 6.00521 31.325 6.05923 31.1781 6.10904C31.0305 6.15885 30.8822 6.20445 30.7334 6.24444C30.6083 6.2746 30.4801 6.29004 30.3524 6.29004C29.9264 6.29004 29.5152 6.12237 29.1942 5.8179C29.075 5.70706 28.9602 5.58639 28.8526 5.46081L28.8197 5.42223L28.2293 7.23361C28.4549 7.39918 28.6921 7.54791 28.9351 7.67839C29.6969 8.06564 30.3234 8.38555 30.4581 9.68831C30.4826 9.91561 30.4717 11.5243 30.4581 12.183H29.0808C29.0943 11.4436 29.1091 10.1247 29.0982 9.92333C29.0891 9.77951 29.0002 9.39928 28.861 9.32983C28.6754 9.24283 28.4833 9.16356 28.2906 9.09832C28.0212 9.0015 27.8007 8.90329 27.5339 8.82331C27.3386 9.52485 27.0756 10.3709 26.7927 11.1777L26.3557 12.5576H24.8629C25.0009 12.1542 25.3141 11.069 25.4533 10.6368C25.7401 9.74233 26.0154 8.82471 26.2171 8.09511C26.0901 7.93201 25.9843 7.75073 25.9026 7.55632C25.8355 7.39769 25.8007 7.22514 25.8007 7.05051C25.8007 6.98246 25.8065 6.91511 25.8168 6.84847L26.5368 4.60283C26.3847 4.59441 26.2094 4.5453 26.0663 4.61335C25.7891 4.74594 25.3811 5.38926 25.1388 5.65304L24.8152 6.01082C24.6025 6.24444 24.4504 6.4998 24.1746 6.55031C24.1546 6.56224 24.132 6.56925 24.1088 6.56925H21.3702V11.1868L21.3696 11.2149C21.528 11.4089 21.6154 11.6596 21.6151 11.9192C21.6151 12.5057 21.1781 12.9814 20.6393 12.9814C20.1005 12.9814 19.6635 12.5057 19.6635 11.9192C19.6635 11.3671 20.0508 10.9139 20.5452 10.862V10.0321L17.3638 6.56925H13.5707V11.1868L13.57 11.2149C13.7285 11.4089 13.8159 11.6596 13.8156 11.9192C13.8156 12.5057 13.3786 12.9814 12.8398 12.9814C12.3009 12.9814 11.8646 12.5057 11.8646 11.9192C11.8646 11.3671 12.2513 10.9139 12.7463 10.862V10.0321L9.5649 6.56925H7.92971L7.89813 6.60433C7.88911 6.61415 7.8775 6.62187 7.8659 6.62608C6.98998 6.93686 6.6284 7.16907 5.70864 7.01263C5.70349 7.01122 5.69898 7.00912 5.69447 7.00702C5.213 6.80357 4.96421 6.52155 4.72057 6.24514L4.68512 6.20445L3.4257 8.33574C3.70027 8.52375 3.97485 8.66336 4.23395 8.79525C5.02157 9.19443 5.66868 9.52345 5.8079 10.869C5.83304 11.1103 5.82144 11.3383 5.80919 11.5853L5.80855 11.5895C5.80726 11.6253 5.80533 11.6639 5.80146 11.7558L5.70542 13.7453C5.70413 13.7966 5.66482 13.8358 5.61777 13.8337L4.40024 13.8379C4.35383 13.8379 4.31581 13.7966 4.31581 13.746C4.32934 12.8474 4.35319 12.5247 4.39508 11.6274L4.40088 11.5067C4.40797 11.3657 4.41506 11.2359 4.40733 11.1153C4.40088 11.0002 4.38155 10.8915 4.33772 10.7876L4.32612 10.7603C4.27778 10.6438 4.23266 10.5365 4.16498 10.5021C4.03092 10.4341 3.81758 10.3492 3.57523 10.2629C3.29744 10.1633 2.98677 10.0622 2.71349 9.97805C2.51304 10.7027 2.6355 11.7031 2.34353 12.5352C2.02771 13.2234 1.82597 13.4177 1.44376 13.9425C1.42829 13.9754 1.39671 13.9937 1.36448 13.9923L0.0850786 14C0.0386721 14 0 13.9586 0 13.9081C0 13.7236 0.786332 12.5148 0.957779 11.981C1.25426 11.0563 1.1434 9.98787 1.35288 9.23091C1.22848 9.06464 1.10924 8.87873 1.02803 8.67388C0.937798 8.44869 0.894614 8.20245 0.939732 7.94007C1.05962 7.23361 1.49532 6.55592 1.88075 5.88104C2.79277 4.28362 3.24137 2.14462 5.67448 5.11986C5.85302 5.33875 6.00771 5.52746 6.174 5.61375C6.30871 5.6839 7.13242 5.30507 7.3593 5.19914V4.91151C7.3593 4.82802 7.42246 4.75857 7.50045 4.75857H8.24553C8.32352 4.75857 8.38669 4.82732 8.38669 4.91151V4.91151ZM4.92425 0.823612C5.08975 0.761685 5.26488 0.736003 5.43954 0.748043C5.61421 0.760083 5.78496 0.809608 5.94197 0.893766C6.24877 1.05723 6.49756 1.34837 6.61679 1.7272C6.67369 1.90735 6.69728 2.09796 6.68622 2.28808C6.67516 2.47819 6.62966 2.66404 6.55234 2.83494C6.47536 3.00617 6.36811 3.15918 6.23671 3.28522C6.10532 3.41126 5.95237 3.50785 5.78663 3.56945C5.43858 3.69854 5.07571 3.66206 4.76891 3.4993C4.46211 3.33514 4.21332 3.0447 4.09409 2.66586C4.03745 2.48564 4.01405 2.29502 4.02522 2.10494C4.03639 1.91485 4.08191 1.72903 4.15918 1.55813C4.30936 1.22419 4.5762 0.953397 4.92425 0.823612V0.823612ZM27.7775 0.0757667C27.9116 0.0252556 28.0527 0 28.1952 0C28.9067 0 29.4849 0.628583 29.4849 1.40379C29.4849 2.17899 28.9067 2.80758 28.1952 2.80758C27.483 2.80758 26.9048 2.17899 26.9048 1.40379C26.9048 1.18982 26.9506 0.977951 27.0369 0.785729C27.1871 0.451092 27.454 0.195731 27.7775 0.0757667V0.0757667ZM18.0302 6.56925L20.5452 9.30738V6.56925H18.0302ZM20.8455 11.6183C20.8011 11.6049 20.7592 11.5832 20.7224 11.5551C20.6954 11.5481 20.6677 11.5439 20.6393 11.5439C20.594 11.5439 20.5492 11.5536 20.5073 11.5725C20.4655 11.5913 20.4275 11.619 20.3955 11.6538C20.3634 11.6887 20.338 11.7301 20.3207 11.7756C20.3034 11.8211 20.2945 11.8699 20.2945 11.9192C20.2945 12.1269 20.4485 12.2945 20.6393 12.2945C20.7118 12.2946 20.7824 12.2698 20.8412 12.2236C20.9 12.1775 20.9439 12.1123 20.9668 12.0375C20.9896 11.9626 20.9902 11.8818 20.9684 11.8065C20.9467 11.7313 20.9037 11.6654 20.8455 11.6183V11.6183ZM10.2307 6.56925L12.7463 9.30738V6.56925H10.2307ZM13.046 11.6183C13.0016 11.6049 12.9603 11.5832 12.9229 11.5551C12.8965 11.5481 12.8688 11.5439 12.8398 11.5439C12.7945 11.5439 12.7497 11.5536 12.7078 11.5725C12.666 11.5913 12.628 11.619 12.5959 11.6538C12.5639 11.6887 12.5385 11.7301 12.5212 11.7756C12.5039 11.8211 12.495 11.8699 12.495 11.9192C12.495 11.9685 12.5039 12.0173 12.5212 12.0629C12.5385 12.1084 12.5639 12.1498 12.5959 12.1846C12.628 12.2195 12.666 12.2471 12.7078 12.266C12.7497 12.2848 12.7945 12.2945 12.8398 12.2945C13.0306 12.2945 13.1852 12.1269 13.1852 11.9192C13.1852 11.7965 13.1305 11.687 13.046 11.6183V11.6183ZM9.68027 1.83875C10.4614 1.83875 11.095 2.52836 11.095 3.37933C11.095 4.2296 10.4614 4.91922 9.68027 4.91922C8.89845 4.91922 8.26487 4.2296 8.26487 3.37933C8.26487 2.52836 8.89845 1.83875 9.68027 1.83875V1.83875ZM13.2935 4.22259C13.2217 4.20412 13.1539 4.1704 13.094 4.12335C13.0341 4.07631 12.9833 4.01688 12.9446 3.94845C12.9059 3.88003 12.8799 3.80395 12.8682 3.72459C12.8566 3.64523 12.8594 3.56414 12.8765 3.48597C12.9481 3.15695 13.251 2.9535 13.5526 3.03137L15.8427 3.62417L18.7605 3.65294C19.0699 3.65574 19.3186 3.93075 19.3161 4.26749C19.3135 4.60423 19.0608 4.87502 18.7515 4.87292L15.8085 4.84346C15.7518 4.84837 15.6938 4.84346 15.6358 4.82872L13.2935 4.22259V4.22259Z" fill="white"/>
</svg>
