<svg xmlns="http://www.w3.org/2000/svg" fill="none" viewBox="8 4 35 35">
<g filter="url(#filter0_d_520_256)">
<path d="M43 21.5C43 31.165 35.165 39 25.5 39C15.835 39 8 31.165 8 21.5C8 11.835 15.835 4 25.5 4C35.165 4 43 11.835 43 21.5Z" fill="#FFFFFE"/>
</g>
<path fill-rule="evenodd" clip-rule="evenodd" d="M18.8819 15.4419C18.8819 15.4419 18.8436 15.4834 18.7933 15.5329C18.6003 15.7203 18.2006 16.1104 18.1966 16.9264C18.1903 18.0679 18.9409 20.1873 22.5552 23.8008C26.1527 27.3968 28.269 28.1562 29.4128 28.1562H29.4296C30.2456 28.1522 30.6349 27.7517 30.8231 27.5595C30.8806 27.5005 30.9268 27.4574 30.9595 27.4303C31.754 26.631 32.1608 26.0359 32.1569 25.6546C32.1513 25.2654 31.6671 24.8051 30.9978 24.1686C30.7848 23.9659 30.5535 23.7458 30.3094 23.5017C29.6769 22.8707 29.3634 22.9784 28.6742 23.2209C27.721 23.5551 26.4128 24.0098 24.3803 21.9765C22.3446 19.9424 22.8001 18.6358 23.1335 17.6826C23.3744 16.9934 23.4845 16.6791 22.8511 16.0458C22.603 15.7985 22.3805 15.564 22.1755 15.3486C21.5429 14.6833 21.0866 14.2023 20.6998 14.1968H20.6934C20.3113 14.1968 19.7178 14.6052 18.8779 15.4451C18.8803 15.4427 18.8819 15.4419 18.8819 15.4419ZM29.4136 29.3527C27.4258 29.3527 24.8341 27.7701 21.7096 24.6472C18.5732 21.5115 16.9882 18.9118 17.0001 16.92C17.0073 15.6039 17.6973 14.9298 17.9566 14.677C17.9701 14.6602 18.0164 14.6147 18.0323 14.5988C19.1762 13.4541 19.9476 12.9915 20.7149 13.0001C21.6059 13.0122 22.2401 13.6791 23.0426 14.5238C23.2412 14.7328 23.4566 14.9601 23.6967 15.1994C24.8613 16.3641 24.5294 17.3141 24.263 18.0767C23.9727 18.9087 23.7214 19.6266 25.2258 21.131C26.7318 22.6354 27.4497 22.3841 28.2785 22.0914C29.0419 21.825 29.9896 21.4915 31.1558 22.6562C31.3919 22.8923 31.616 23.1052 31.8226 23.3023C32.6714 24.1087 33.3414 24.7461 33.3527 25.6395C33.3621 26.4013 32.8995 27.1774 31.7572 28.3205C31.5043 28.5797 30.7529 29.3455 29.436 29.3527H29.4136Z" fill="#F27300"/>
<defs>
<filter id="filter0_d_520_256" x="0" y="0" width="51" height="51" filterUnits="userSpaceOnUse" color-interpolation-filters="sRGB">
<feFlood flood-opacity="0" result="BackgroundImageFix"/>
<feColorMatrix in="SourceAlpha" type="matrix" values="0 0 0 0 0 0 0 0 0 0 0 0 0 0 0 0 0 0 127 0" result="hardAlpha"/>
<feOffset dy="4"/>
<feGaussianBlur stdDeviation="4"/>
<feComposite in2="hardAlpha" operator="out"/>
<feColorMatrix type="matrix" values="0 0 0 0 0 0 0 0 0 0 0 0 0 0 0 0 0 0 0.5 0"/>
<feBlend mode="normal" in2="BackgroundImageFix" result="effect1_dropShadow_520_256"/>
<feBlend mode="normal" in="SourceGraphic" in2="effect1_dropShadow_520_256" result="shape"/>
</filter>
</defs>
</svg>