<svg xmlns="http://www.w3.org/2000/svg" fill="none" viewBox="8 4 35 35">
<g filter="url(#filter0_d_520_257)">
<path d="M43 21.5C43 31.165 35.165 39 25.5 39C15.835 39 8 31.165 8 21.5C8 11.835 15.835 4 25.5 4C35.165 4 43 11.835 43 21.5Z" fill="#FFFFFE"/>
</g>
<path fill-rule="evenodd" clip-rule="evenodd" d="M26.0011 15C27.8725 15 29.6312 15.7276 30.9521 17.0491C33.6826 19.7796 33.6826 24.2217 30.9521 26.9522C29.6136 28.2913 27.8113 29 25.9855 29C24.9902 29 23.9884 28.7896 23.0511 28.3558C22.7749 28.2451 22.5163 28.1409 22.3307 28.1409C22.1171 28.1422 21.8298 28.2412 21.5523 28.3369C20.983 28.5323 20.2743 28.7759 19.75 28.2536C19.2276 27.7305 19.4686 27.0238 19.6627 26.4552C19.7585 26.1751 19.8568 25.8859 19.8568 25.6671C19.8568 25.4873 19.7702 25.258 19.6373 24.9278C18.4173 22.2931 18.9814 19.1178 21.0508 17.0498C22.3717 15.7282 24.1298 15 26.0011 15ZM26.0018 15.977C24.391 15.977 22.8778 16.6036 21.7412 17.7409C19.9604 19.5203 19.4758 22.2527 20.5342 24.5409C20.6867 24.918 20.8339 25.2854 20.8339 25.6671C20.8339 26.0481 20.7029 26.4317 20.5877 26.7704C20.4926 27.0492 20.3486 27.47 20.4411 27.5625C20.5316 27.6563 20.955 27.5084 21.2345 27.4127C21.5699 27.298 21.9503 27.1665 22.3274 27.1639C22.7052 27.1639 23.0615 27.3072 23.4387 27.4589C25.749 28.5271 28.4815 28.0412 30.2617 26.2617C32.6105 23.9117 32.6105 20.089 30.2617 17.7402C29.1244 16.603 27.6119 15.977 26.0018 15.977ZM28.5726 21.6194C28.9322 21.6194 29.224 21.9106 29.224 22.2708C29.224 22.631 28.9322 22.9221 28.5726 22.9221C28.2131 22.9221 27.9187 22.631 27.9187 22.2708C27.9187 21.9106 28.2072 21.6194 28.5668 21.6194H28.5726ZM25.9615 21.6194C26.321 21.6194 26.6128 21.9106 26.6128 22.2708C26.6128 22.631 26.321 22.9221 25.9615 22.9221C25.6019 22.9221 25.3075 22.631 25.3075 22.2708C25.3075 21.9106 25.5954 21.6194 25.9556 21.6194H25.9615ZM23.35 21.6194C23.7096 21.6194 24.0014 21.9106 24.0014 22.2708C24.0014 22.631 23.7096 22.9221 23.35 22.9221C22.9905 22.9221 22.696 22.631 22.696 22.2708C22.696 21.9106 22.9846 21.6194 23.3442 21.6194H23.35Z" fill="#97A0C7" stroke="#97A0C7" stroke-width="0.5"/>
<defs>
<filter id="filter0_d_520_257" x="0" y="0" width="51" height="51" filterUnits="userSpaceOnUse" color-interpolation-filters="sRGB">
<feFlood flood-opacity="0" result="BackgroundImageFix"/>
<feColorMatrix in="SourceAlpha" type="matrix" values="0 0 0 0 0 0 0 0 0 0 0 0 0 0 0 0 0 0 127 0" result="hardAlpha"/>
<feOffset dy="4"/>
<feGaussianBlur stdDeviation="4"/>
<feComposite in2="hardAlpha" operator="out"/>
<feColorMatrix type="matrix" values="0 0 0 0 0 0 0 0 0 0 0 0 0 0 0 0 0 0 0.5 0"/>
<feBlend mode="normal" in2="BackgroundImageFix" result="effect1_dropShadow_520_257"/>
<feBlend mode="normal" in="SourceGraphic" in2="effect1_dropShadow_520_257" result="shape"/>
</filter>
</defs>
</svg>