<svg width="19" height="18" viewBox="0 0 19 18" fill="none" xmlns="http://www.w3.org/2000/svg">
<path fill-rule="evenodd" clip-rule="evenodd" d="M14.7699 9.67709C15.6063 9.67679 16.424 9.9206 17.1196 10.3777C17.8152 10.8348 18.3574 11.4846 18.6777 12.245C18.998 13.0054 19.0819 13.8421 18.9189 14.6495C18.756 15.4568 18.3533 16.1985 17.762 16.7806C17.1707 17.3627 16.4173 17.7592 15.5969 17.9199C14.7766 18.0806 13.9263 17.9983 13.1536 17.6834C12.3808 17.3684 11.7203 16.8351 11.2556 16.1507C10.7909 15.4663 10.5428 14.6617 10.5428 13.8385C10.5428 12.7351 10.9881 11.6769 11.7808 10.8965C12.5735 10.1161 13.6487 9.67749 14.7699 9.67709ZM11.0685 0.608622C11.0685 0.269315 11.4102 0 11.8323 0C12.2544 0 12.5961 0.276923 12.5961 0.61623V3.47675C12.5961 3.81758 12.2544 4.09298 11.8323 4.09298C11.4102 4.09298 11.0685 3.81758 11.0685 3.47675V0.608622ZM4.22549 0.608622C4.22549 0.269315 4.56717 0 4.98926 0C5.41134 0 5.75458 0.276923 5.75458 0.61623V3.47675C5.75458 3.81758 5.41134 4.10059 4.98926 4.10059C4.56717 4.10059 4.22549 3.82519 4.22549 3.48436V0.608622V0.608622ZM7.42127 11.8088H9.27659C9.03135 12.4582 8.90671 13.1457 8.90862 13.8385C8.90862 13.9709 8.90862 14.1033 8.92253 14.2341H7.42127C7.34472 14.2337 7.27141 14.2036 7.21728 14.1504C7.16315 14.0971 7.13256 14.025 7.13215 13.9496V12.0933C7.13256 12.018 7.16315 11.9458 7.21728 11.8926C7.27141 11.8393 7.34472 11.8092 7.42127 11.8088V11.8088ZM11.9977 7.86035H14.2658C14.3297 7.86087 14.3917 7.88198 14.4422 7.92045C14.4928 7.95892 14.5291 8.01264 14.5457 8.07337C13.5419 8.10998 12.5647 8.40084 11.7086 8.91784V8.14336C11.709 8.06817 11.7397 7.99618 11.7938 7.94315C11.848 7.89012 11.9213 7.86035 11.9977 7.86035V7.86035ZM7.42127 7.86035H9.69094C9.76735 7.86035 9.84066 7.89012 9.89484 7.94315C9.94901 7.99618 9.97965 8.06817 9.98006 8.14336V10.0012C9.97926 10.0764 9.94854 10.1483 9.89449 10.2015C9.84044 10.2547 9.76737 10.2849 9.69094 10.2857H7.42127C7.34472 10.2853 7.27141 10.2552 7.21728 10.2019C7.16315 10.1487 7.13256 10.0765 7.13215 10.0012V8.14336C7.13296 8.06829 7.16373 7.99654 7.21782 7.94359C7.27191 7.89065 7.34498 7.86075 7.42127 7.86035V7.86035ZM2.84791 7.86035H5.11758C5.15581 7.85975 5.19378 7.86661 5.22929 7.88055C5.26481 7.89448 5.29716 7.91521 5.32448 7.94153C5.3518 7.96785 5.37354 7.99924 5.38845 8.03388C5.40336 8.06853 5.41114 8.10574 5.41134 8.14336V10.0012C5.41054 10.0764 5.37982 10.1483 5.32577 10.2015C5.27173 10.2547 5.19865 10.2849 5.12222 10.2857H2.84946C2.77278 10.2857 2.69924 10.2557 2.64502 10.2024C2.5908 10.149 2.56034 10.0766 2.56034 10.0012V8.14336C2.56075 8.06817 2.59139 7.99618 2.64556 7.94315C2.69974 7.89012 2.77305 7.86035 2.84946 7.86035H2.84791ZM2.84791 11.8088H5.11758C5.15594 11.8082 5.19404 11.8151 5.22965 11.8291C5.26527 11.8432 5.29769 11.864 5.32503 11.8905C5.35237 11.917 5.37408 11.9485 5.3889 11.9834C5.40372 12.0182 5.41135 12.0556 5.41134 12.0933V13.9496C5.41053 14.0256 5.37917 14.0982 5.32412 14.1515C5.26907 14.2049 5.19482 14.2346 5.11758 14.2341H2.84946C2.77278 14.2341 2.69924 14.2042 2.64502 14.1508C2.5908 14.0975 2.56034 14.0251 2.56034 13.9496V12.0933C2.56034 12.0179 2.5908 11.9455 2.64502 11.8921C2.69924 11.8388 2.77278 11.8088 2.84946 11.8088H2.84791ZM9.87957 17.0216H1.5832C1.16381 17.02 0.762065 16.8554 0.465509 16.5635C0.168953 16.2717 0.00162872 15.8763 0 15.4636V3.11767C0.00203235 2.70506 0.169486 2.30992 0.465955 2.01815C0.762424 1.72639 1.16394 1.56159 1.5832 1.55959H3.04272V3.47675C3.04412 3.73306 3.10403 3.98578 3.21803 4.21622C3.33204 4.44667 3.49722 4.64895 3.70136 4.80811C4.06602 5.09853 4.52092 5.25697 4.99003 5.25697C5.45914 5.25697 5.91404 5.09853 6.2787 4.80811C6.48284 4.64895 6.64802 4.44667 6.76203 4.21622C6.87603 3.98578 6.93595 3.73306 6.93734 3.47675V1.55959H9.88575V3.47675C9.88685 3.73295 9.94647 3.98563 10.0602 4.21609C10.174 4.44654 10.3389 4.64887 10.5428 4.80811C10.9078 5.09865 11.3629 5.25715 11.8323 5.25715C12.3017 5.25715 12.7568 5.09865 13.1217 4.80811C13.3254 4.64865 13.4902 4.44627 13.6039 4.21587C13.7176 3.98546 13.7774 3.7329 13.7788 3.47675V1.55959H15.3064C15.7258 1.5612 16.1275 1.72587 16.4241 2.01771C16.7206 2.30956 16.8879 2.70493 16.8896 3.11767V8.4568C16.6689 8.37259 16.4433 8.30145 16.2139 8.24379V6.06948H0.675645V15.1319C0.678894 15.455 0.811309 15.7639 1.04424 15.9917C1.27716 16.2195 1.59187 16.3479 1.92025 16.3491H9.49613C9.6107 16.5785 9.7398 16.8006 9.88266 17.014L9.87957 17.0216ZM14.1839 11.7434H14.7003C14.7462 11.7434 14.7903 11.7613 14.8227 11.7933C14.8552 11.8252 14.8735 11.8686 14.8735 11.9138V13.8735H16.6979C16.7435 13.8735 16.7873 13.8913 16.8198 13.9229C16.8522 13.9545 16.8706 13.9975 16.871 14.0424V14.5522C16.8706 14.5971 16.8522 14.64 16.8198 14.6717C16.7873 14.7033 16.7435 14.721 16.6979 14.721H14.0123V11.9138C14.0123 11.8688 14.0303 11.8257 14.0625 11.7938C14.0946 11.7619 14.1382 11.7438 14.1839 11.7434ZM14.7699 10.622C15.4164 10.6217 16.0485 10.8101 16.5861 11.1633C17.1238 11.5166 17.543 12.0188 17.7906 12.6066C18.0382 13.1943 18.1032 13.8411 17.9773 14.4651C17.8513 15.0892 17.5402 15.6625 17.0831 16.1125C16.6261 16.5625 16.0437 16.869 15.4096 16.9932C14.7756 17.1174 14.1183 17.0538 13.521 16.8104C12.9237 16.567 12.4131 16.1547 12.0539 15.6257C11.6947 15.0967 11.503 14.4748 11.503 13.8385C11.5028 13.4162 11.5871 12.998 11.7512 12.6077C11.9153 12.2175 12.1559 11.8629 12.4593 11.5642C12.7627 11.2655 13.1229 11.0285 13.5193 10.8669C13.9158 10.7052 14.3407 10.622 14.7699 10.622V10.622Z" fill="white"/>
</svg>
