<svg width="22" height="18" viewBox="0 0 22 18" fill="none" xmlns="http://www.w3.org/2000/svg">
<path fill-rule="evenodd" clip-rule="evenodd" d="M0 7.58143H3.70337V15.3906H0V7.58143ZM14.0427 4.84198H14.7605C14.8058 4.84198 14.8493 4.86002 14.8813 4.89213C14.9134 4.92423 14.9314 4.96778 14.9314 5.01319V5.96686H15.8935C15.9389 5.96686 15.9823 5.9849 16.0144 6.01701C16.0464 6.04912 16.0644 6.09267 16.0644 6.13808V6.85547C16.0644 6.90088 16.0464 6.94443 16.0144 6.97654C15.9823 7.00865 15.9389 7.02669 15.8935 7.02669H14.9382V7.98036C14.9382 8.02577 14.9202 8.06932 14.8882 8.10143C14.8561 8.13354 14.8127 8.15158 14.7673 8.15158H14.0496C14.0042 8.15158 13.9608 8.13354 13.9287 8.10143C13.8967 8.06932 13.8787 8.02577 13.8787 7.98036V7.05751H12.9131C12.8678 7.05751 12.8243 7.03947 12.7922 7.00736C12.7602 6.97525 12.7422 6.9317 12.7422 6.88629V6.16376C12.7422 6.11835 12.7602 6.0748 12.7922 6.04269C12.8243 6.01059 12.8678 5.99255 12.9131 5.99255H13.865V5.02689C13.8671 4.98215 13.8857 4.9398 13.9173 4.90814C13.949 4.87647 13.9912 4.85776 14.0359 4.85567L14.0427 4.84198ZM9.02173 1.06325H9.63183C9.65181 1.06325 9.67158 1.06719 9.69004 1.07485C9.70849 1.08251 9.72526 1.09373 9.73938 1.10788C9.75351 1.12203 9.76471 1.13883 9.77235 1.15732C9.78 1.17581 9.78393 1.19562 9.78393 1.21563V2.02719H10.5957C10.6157 2.02719 10.6355 2.03113 10.6539 2.03879C10.6724 2.04645 10.6891 2.05767 10.7033 2.07182C10.7174 2.08597 10.7286 2.10277 10.7362 2.12126C10.7439 2.13975 10.7478 2.15956 10.7478 2.17958V2.79081C10.7478 2.83123 10.7318 2.86999 10.7033 2.89857C10.6747 2.92714 10.636 2.9432 10.5957 2.9432H9.78393V3.75476C9.78393 3.77477 9.78 3.79458 9.77235 3.81307C9.76471 3.83156 9.75351 3.84836 9.73938 3.86251C9.72526 3.87666 9.70849 3.88788 9.69004 3.89554C9.67158 3.9032 9.65181 3.90714 9.63183 3.90714H9.02173C8.98139 3.90714 8.9427 3.89109 8.91417 3.86251C8.88565 3.83393 8.86963 3.79517 8.86963 3.75476V2.9432H8.05957C8.01923 2.9432 7.98054 2.92714 7.95202 2.89857C7.92349 2.86999 7.90747 2.83123 7.90747 2.79081V2.17958C7.90747 2.15956 7.9114 2.13975 7.91905 2.12126C7.92669 2.10277 7.93789 2.08597 7.95202 2.07182C7.96614 2.05767 7.98291 2.04645 8.00136 2.03879C8.01982 2.03113 8.03959 2.02719 8.05957 2.02719H8.86963V1.21563C8.86963 1.17522 8.88565 1.13646 8.91417 1.10788C8.9427 1.0793 8.98139 1.06325 9.02173 1.06325V1.06325ZM9.32763 5.90046e-07C9.81849 7.06672e-07 10.2983 0.145848 10.7064 0.419095C11.1145 0.692341 11.4326 1.08071 11.6204 1.53508C11.8081 1.98944 11.8572 2.48939 11.7613 2.97169C11.6654 3.45398 11.4289 3.89695 11.0817 4.24456C10.7345 4.59217 10.2922 4.82881 9.81069 4.92454C9.32923 5.02027 8.83024 4.9708 8.37684 4.78237C7.92345 4.59394 7.53602 4.27503 7.26356 3.86598C6.9911 3.45693 6.84585 2.97611 6.84619 2.48434C6.84619 2.15795 6.91039 1.83475 7.03511 1.53323C7.15984 1.2317 7.34265 0.957755 7.57309 0.727041C7.80354 0.496326 8.0771 0.313367 8.37816 0.188618C8.67921 0.063869 9.00185 -0.000224353 9.32763 5.90046e-07V5.90046e-07ZM14.4016 3.59553C14.9762 3.59553 15.5379 3.76624 16.0157 4.08606C16.4935 4.40589 16.8658 4.86048 17.0857 5.39233C17.3056 5.92418 17.3632 6.50942 17.2511 7.07404C17.139 7.63865 16.8623 8.15728 16.4559 8.56434C16.0496 8.97141 15.532 9.24862 14.9684 9.36093C14.4048 9.47324 13.8207 9.4156 13.2898 9.1953C12.7589 8.975 12.3052 8.60193 11.986 8.12327C11.6667 7.64462 11.4963 7.08187 11.4963 6.50619C11.4963 5.73424 11.8024 4.9939 12.3473 4.44804C12.8921 3.90219 13.6311 3.59553 14.4016 3.59553V3.59553ZM4.5852 14.7245V8.21835H7.51953C8.76196 8.44093 10.0044 9.11552 11.2451 9.89797H13.5181C14.5435 9.95961 15.0886 11.0075 14.0854 11.694C13.2891 12.2813 12.2346 12.2471 11.1562 12.1512C10.4111 12.1135 10.3787 13.1151 11.1562 13.1185C11.4263 13.1408 11.7185 13.0757 11.9748 13.0757C13.3215 13.0757 14.4307 12.8172 15.1091 11.7505L15.4509 10.9544L18.8381 9.27304C20.5317 8.71487 21.7434 10.4887 20.4873 11.7248C18.1267 13.4534 15.6017 14.9445 12.949 16.1764C11.0793 17.315 9.21142 17.2757 7.34521 16.1764L4.5852 14.7348V14.7245Z" fill="white"/>
</svg>
