<svg width="20" height="28" viewBox="0 0 20 28" fill="none" xmlns="http://www.w3.org/2000/svg">
<path d="M11.0778 1.07679L3.38517 2.27342C1.7697 2.52471 0.961965 2.65036 0.480983 3.21195C0 3.77353 0 4.59098 0 6.22588V21.7741C0 23.409 0 24.2265 0.480983 24.7881C0.961965 25.3496 1.7697 25.4753 3.38517 25.7266L11.0778 26.9232C14.2946 27.4236 15.903 27.6738 16.9515 26.7758C18 25.8778 18 24.25 18 20.9945V7.00549C18 3.74999 18 2.12224 16.9515 1.22422C15.903 0.326203 14.2946 0.5764 11.0778 1.07679Z" fill="#F47400"/>
<path d="M8 14L7.22477 13.3683L6.71007 14L7.22477 14.6317L8 14ZM19 15C19.5523 15 20 14.5523 20 14C20 13.4477 19.5523 13 19 13V15ZM12.1137 7.36833L7.22477 13.3683L8.77523 14.6317L13.6641 8.63167L12.1137 7.36833ZM7.22477 14.6317L12.1137 20.6317L13.6641 19.3683L8.77523 13.3683L7.22477 14.6317ZM8 15H19V13H8V15Z" fill="white"/>
</svg>
